<svg version="1.1" viewBox="0.0 0.0 1326.2992125984251 797.9658792650919" fill="none" stroke="none" stroke-linecap="square" stroke-miterlimit="10" xmlns:xlink="http://www.w3.org/1999/xlink" xmlns="http://www.w3.org/2000/svg"><clipPath id="p.0"><path d="m0 0l1326.2992 0l0 797.9659l-1326.2992 0l0 -797.9659z" clip-rule="nonzero"/></clipPath><g clip-path="url(#p.0)"><path fill="#000000" fill-opacity="0.0" d="m0 0l1326.2992 0l0 797.9659l-1326.2992 0z" fill-rule="evenodd"/><path fill="#999999" d="m1299.5486 33.569553l0 447.8858l-506.55188 0l0 294.22446l-755.02295 0l0 -742.1102z" fill-rule="evenodd"/><path stroke="#000000" stroke-width="1.0" stroke-linejoin="round" stroke-linecap="butt" d="m1299.5486 33.569553l0 447.8858l-506.55188 0l0 294.22446l-755.02295 0l0 -742.1102z" fill-rule="evenodd"/><path fill="#d9d9d9" d="m53.564304 114.79659l0 0c0 -36.31816 29.441685 -65.75984 65.75984 -65.75984l1096.6378 0c17.440674 0 34.16687 6.9282494 46.499268 19.260609c12.332397 12.332367 19.26062 29.05864 19.26062 46.499237l0 263.0315c0 36.318146 -29.44165 65.75983 -65.75989 65.75983l-1096.6378 0c-36.31816 0 -65.75984 -29.44168 -65.75984 -65.75983z" fill-rule="evenodd"/><path stroke="#000000" stroke-width="4.0" stroke-linejoin="round" stroke-linecap="butt" stroke-dasharray="16.0,12.0" d="m53.564304 114.79659l0 0c0 -36.31816 29.441685 -65.75984 65.75984 -65.75984l1096.6378 0c17.440674 0 34.16687 6.9282494 46.499268 19.260609c12.332397 12.332367 19.26062 29.05864 19.26062 46.499237l0 263.0315c0 36.318146 -29.44165 65.75983 -65.75989 65.75983l-1096.6378 0c-36.31816 0 -65.75984 -29.44168 -65.75984 -65.75983z" fill-rule="evenodd"/><g filter="url(#shadowFilter-p.1)"><use xlink:href="#p.1" transform="matrix(1.0 0.0 0.0 1.0 0.0 15.0)"/></g><defs><filter id="shadowFilter-p.1" filterUnits="userSpaceOnUse"><feGaussianBlur in="SourceAlpha" stdDeviation="2.0" result="blur"/><feComponentTransfer in="blur" color-interpolation-filters="sRGB"><feFuncR type="linear" slope="0" intercept="0.0"/><feFuncG type="linear" slope="0" intercept="0.0"/><feFuncB type="linear" slope="0" intercept="0.0"/><feFuncA type="linear" slope="0.5" intercept="0"/></feComponentTransfer></filter></defs><g id="p.1"><path fill="#b6d7a8" d="m77.09974 93.81797l0 0c0 -10.625534 8.613693 -19.239227 19.239227 -19.239227l120.702644 0c5.1025543 0 9.99614 2.0269852 13.604187 5.6350403c3.6080627 3.608055 5.6350403 8.501625 5.6350403 13.604187l0 76.95461c0 10.625534 -8.613693 19.239227 -19.239227 19.239227l-120.702644 0c-10.625534 0 -19.239227 -8.613693 -19.239227 -19.239227z" fill-rule="evenodd"/><path stroke="#000000" stroke-width="1.0" stroke-linejoin="round" stroke-linecap="butt" d="m77.09974 93.81797l0 0c0 -10.625534 8.613693 -19.239227 19.239227 -19.239227l120.702644 0c5.1025543 0 9.99614 2.0269852 13.604187 5.6350403c3.6080627 3.608055 5.6350403 8.501625 5.6350403 13.604187l0 76.95461c0 10.625534 -8.613693 19.239227 -19.239227 19.239227l-120.702644 0c-10.625534 0 -19.239227 -8.613693 -19.239227 -19.239227z" fill-rule="evenodd"/><path fill="#000000" d="m139.0382 138.43527l0 -12.40625l1.640625 0l0 12.40625l-1.640625 0zm4.548691 0l0 -12.40625l4.265625 0q1.453125 0 2.203125 0.1875q1.078125 0.234375 1.828125 0.875q0.984375 0.828125 1.46875 2.125q0.484375 1.296875 0.484375 2.953125q0 1.40625 -0.328125 2.5q-0.328125 1.09375 -0.84375 1.8125q-0.515625 0.703125 -1.140625 1.125q-0.609375 0.40625 -1.484375 0.625q-0.859375 0.203125 -1.984375 0.203125l-4.46875 0zm1.640625 -1.46875l2.640625 0q1.234375 0 1.921875 -0.21875q0.703125 -0.234375 1.125 -0.640625q0.578125 -0.59375 0.90625 -1.578125q0.328125 -0.984375 0.328125 -2.390625q0 -1.9375 -0.640625 -2.984375q-0.640625 -1.046875 -1.5625 -1.40625q-0.65625 -0.25 -2.125 -0.25l-2.59375 0l0 9.46875zm10.795074 1.46875l0 -12.40625l1.640625 0l0 10.9375l6.109375 0l0 1.46875l-7.75 0zm9.74646 0l0 -12.40625l8.96875 0l0 1.46875l-7.328125 0l0 3.796875l6.859375 0l0 1.453125l-6.859375 0l0 4.21875l7.609375 0l0 1.46875l-9.25 0z" fill-rule="nonzero"/></g><g filter="url(#shadowFilter-p.2)"><use xlink:href="#p.2" transform="matrix(1.0 0.0 0.0 1.0 0.0 15.0)"/></g><defs><filter id="shadowFilter-p.2" filterUnits="userSpaceOnUse"><feGaussianBlur in="SourceAlpha" stdDeviation="2.0" result="blur"/><feComponentTransfer in="blur" color-interpolation-filters="sRGB"><feFuncR type="linear" slope="0" intercept="0.5764706"/><feFuncG type="linear" slope="0" intercept="0.76862746"/><feFuncB type="linear" slope="0" intercept="0.49019608"/><feFuncA type="linear" slope="0.5" intercept="0"/></feComponentTransfer></filter></defs><g id="p.2"><path fill="#a4c2f4" d="m341.12598 93.81797l0 0c0 -10.625534 8.6137085 -19.239227 19.239227 -19.239227l120.70267 0c5.102539 0 9.996124 2.0269852 13.604187 5.6350403c3.6080322 3.608055 5.6350403 8.501625 5.6350403 13.604187l0 76.95461c0 10.625534 -8.6137085 19.239227 -19.239227 19.239227l-120.70267 0c-10.625519 0 -19.239227 -8.613693 -19.239227 -19.239227z" fill-rule="evenodd"/><path stroke="#000000" stroke-width="1.0" stroke-linejoin="round" stroke-linecap="butt" d="m341.12598 93.81797l0 0c0 -10.625534 8.6137085 -19.239227 19.239227 -19.239227l120.70267 0c5.102539 0 9.996124 2.0269852 13.604187 5.6350403c3.6080322 3.608055 5.6350403 8.501625 5.6350403 13.604187l0 76.95461c0 10.625534 -8.6137085 19.239227 -19.239227 19.239227l-120.70267 0c-10.625519 0 -19.239227 -8.613693 -19.239227 -19.239227z" fill-rule="evenodd"/><path fill="#000000" d="m378.49496 134.4509l1.546875 -0.140625q0.109375 0.9375 0.5 1.53125q0.40625 0.59375 1.25 0.96875q0.859375 0.359375 1.90625 0.359375q0.9375 0 1.65625 -0.265625q0.734375 -0.28125 1.078125 -0.765625q0.34375 -0.5 0.34375 -1.078125q0 -0.578125 -0.34375 -1.015625q-0.328125 -0.4375 -1.109375 -0.734375q-0.5 -0.1875 -2.203125 -0.59375q-1.703125 -0.421875 -2.390625 -0.78125q-0.890625 -0.46875 -1.328125 -1.15625q-0.4375 -0.6875 -0.4375 -1.546875q0 -0.9375 0.53125 -1.75q0.53125 -0.8125 1.546875 -1.234375q1.03125 -0.421875 2.296875 -0.421875q1.375 0 2.421875 0.4375q1.0625 0.4375 1.625 1.3125q0.5625 0.859375 0.609375 1.953125l-1.578125 0.109375q-0.125 -1.171875 -0.859375 -1.765625q-0.734375 -0.609375 -2.15625 -0.609375q-1.484375 0 -2.171875 0.546875q-0.6875 0.546875 -0.6875 1.3125q0 0.671875 0.484375 1.109375q0.484375 0.421875 2.484375 0.875q2.0 0.453125 2.734375 0.796875q1.09375 0.5 1.609375 1.265625q0.515625 0.765625 0.515625 1.765625q0 0.984375 -0.578125 1.859375q-0.5625 0.875 -1.625 1.375q-1.0625 0.484375 -2.390625 0.484375q-1.6875 0 -2.828125 -0.484375q-1.125 -0.5 -1.78125 -1.484375q-0.640625 -0.984375 -0.671875 -2.234375zm15.276489 3.984375l0 -10.9375l-4.09375 0l0 -1.46875l9.828125 0l0 1.46875l-4.09375 0l0 10.9375l-1.640625 0zm4.7669983 0l4.765625 -12.40625l1.765625 0l5.078125 12.40625l-1.859375 0l-1.453125 -3.75l-5.1875 0l-1.359375 3.75l-1.75 0zm3.578125 -5.09375l4.21875 0l-1.296875 -3.4375q-0.59375 -1.5625 -0.890625 -2.5625q-0.234375 1.1875 -0.65625 2.359375l-1.375 3.640625zm9.370239 5.09375l0 -12.40625l5.5 0q1.65625 0 2.515625 0.34375q0.875 0.328125 1.390625 1.171875q0.515625 0.84375 0.515625 1.875q0 1.3125 -0.859375 2.21875q-0.859375 0.90625 -2.640625 1.15625q0.65625 0.3125 1.0 0.609375q0.71875 0.671875 1.359375 1.65625l2.15625 3.375l-2.0625 0l-1.640625 -2.578125q-0.71875 -1.125 -1.1875 -1.703125q-0.46875 -0.59375 -0.84375 -0.828125q-0.359375 -0.25 -0.734375 -0.34375q-0.28125 -0.0625 -0.921875 -0.0625l-1.90625 0l0 5.515625l-1.640625 0zm1.640625 -6.921875l3.53125 0q1.125 0 1.75 -0.234375q0.640625 -0.234375 0.96875 -0.75q0.34375 -0.515625 0.34375 -1.109375q0 -0.890625 -0.640625 -1.453125q-0.640625 -0.5625 -2.03125 -0.5625l-3.921875 0l0 4.109375zm13.700653 6.921875l0 -10.9375l-4.09375 0l0 -1.46875l9.828125 0l0 1.46875l-4.09375 0l0 10.9375l-1.640625 0zm7.694092 0l0 -12.40625l1.640625 0l0 12.40625l-1.640625 0zm4.517456 0l0 -12.40625l1.6875 0l6.515625 9.734375l0 -9.734375l1.578125 0l0 12.40625l-1.6875 0l-6.515625 -9.75l0 9.75l-1.578125 0zm18.34195 -4.859375l0 -1.46875l5.25 0l0 4.609375q-1.203125 0.953125 -2.5 1.453125q-1.28125 0.484375 -2.625 0.484375q-1.828125 0 -3.328125 -0.78125q-1.5 -0.796875 -2.265625 -2.265625q-0.75 -1.484375 -0.75 -3.3125q0 -1.8125 0.75 -3.375q0.765625 -1.578125 2.1875 -2.328125q1.421875 -0.765625 3.265625 -0.765625q1.359375 0 2.4375 0.4375q1.09375 0.421875 1.703125 1.203125q0.625 0.78125 0.9375 2.03125l-1.46875 0.40625q-0.28125 -0.9375 -0.703125 -1.484375q-0.40625 -0.546875 -1.1875 -0.859375q-0.765625 -0.328125 -1.703125 -0.328125q-1.125 0 -1.953125 0.34375q-0.8125 0.328125 -1.3125 0.890625q-0.5 0.5625 -0.78125 1.234375q-0.484375 1.140625 -0.484375 2.484375q0 1.671875 0.5625 2.78125q0.578125 1.109375 1.671875 1.65625q1.09375 0.546875 2.328125 0.546875q1.0625 0 2.078125 -0.40625q1.015625 -0.421875 1.53125 -0.890625l0 -2.296875l-3.640625 0z" fill-rule="nonzero"/></g><path fill="#b6d7a8" d="m593.6837 93.81797l0 0c0 -10.625534 8.6137085 -19.239227 19.239258 -19.239227l120.70264 0c5.102539 0 9.996094 2.0269852 13.604187 5.6350403c3.6080322 3.608055 5.63501 8.501625 5.63501 13.604187l0 76.95461c0 10.625534 -8.613647 19.239227 -19.239197 19.239227l-120.70264 0c-10.625549 0 -19.239258 -8.613693 -19.239258 -19.239227z" fill-rule="evenodd"/><path stroke="#000000" stroke-width="1.0" stroke-linejoin="round" stroke-linecap="butt" d="m593.6837 93.81797l0 0c0 -10.625534 8.6137085 -19.239227 19.239258 -19.239227l120.70264 0c5.102539 0 9.996094 2.0269852 13.604187 5.6350403c3.6080322 3.608055 5.63501 8.501625 5.63501 13.604187l0 76.95461c0 10.625534 -8.613647 19.239227 -19.239197 19.239227l-120.70264 0c-10.625549 0 -19.239258 -8.613693 -19.239258 -19.239227z" fill-rule="evenodd"/><path fill="#000000" d="m633.72766 138.43527l0 -12.40625l8.96875 0l0 1.46875l-7.328125 0l0 3.796875l6.859375 0l0 1.453125l-6.859375 0l0 4.21875l7.609375 0l0 1.46875l-9.25 0zm10.260864 0l4.796875 -6.46875l-4.234375 -5.9375l1.953125 0l2.25 3.1875q0.703125 0.984375 1.0 1.515625q0.421875 -0.671875 0.984375 -1.40625l2.5 -3.296875l1.78125 0l-4.359375 5.84375l4.703125 6.5625l-2.03125 0l-3.125 -4.421875q-0.265625 -0.390625 -0.546875 -0.828125q-0.40625 0.671875 -0.59375 0.921875l-3.109375 4.328125l-1.96875 0zm12.854553 0l0 -12.40625l8.96875 0l0 1.46875l-7.328125 0l0 3.796875l6.859375 0l0 1.453125l-6.859375 0l0 4.21875l7.609375 0l0 1.46875l-9.25 0zm20.37024 -4.34375l1.640625 0.40625q-0.515625 2.03125 -1.859375 3.09375q-1.34375 1.0625 -3.28125 1.0625q-2.0 0 -3.265625 -0.8125q-1.25 -0.828125 -1.90625 -2.375q-0.65625 -1.546875 -0.65625 -3.328125q0 -1.9375 0.734375 -3.375q0.75 -1.453125 2.109375 -2.1875q1.375 -0.75 3.015625 -0.75q1.859375 0 3.125 0.953125q1.28125 0.9375 1.765625 2.65625l-1.609375 0.375q-0.4375 -1.34375 -1.265625 -1.953125q-0.8125 -0.625 -2.046875 -0.625q-1.4375 0 -2.40625 0.6875q-0.953125 0.671875 -1.34375 1.828125q-0.375 1.15625 -0.375 2.390625q0 1.578125 0.453125 2.765625q0.46875 1.171875 1.4375 1.765625q0.96875 0.578125 2.109375 0.578125q1.375 0 2.328125 -0.796875q0.953125 -0.796875 1.296875 -2.359375zm11.795105 -8.0625l1.65625 0l0 7.171875q0 1.859375 -0.4375 2.96875q-0.421875 1.09375 -1.53125 1.796875q-1.09375 0.6875 -2.890625 0.6875q-1.734375 0 -2.84375 -0.59375q-1.109375 -0.609375 -1.59375 -1.75q-0.46875 -1.140625 -0.46875 -3.109375l0 -7.171875l1.640625 0l0 7.15625q0 1.625 0.296875 2.390625q0.3125 0.765625 1.03125 1.1875q0.734375 0.40625 1.796875 0.40625q1.8125 0 2.578125 -0.8125q0.765625 -0.828125 0.765625 -3.171875l0 -7.15625zm7.545044 12.40625l0 -10.9375l-4.09375 0l0 -1.46875l9.828125 0l0 1.46875l-4.09375 0l0 10.9375l-1.640625 0zm7.459717 0l0 -12.40625l8.96875 0l0 1.46875l-7.328125 0l0 3.796875l6.859375 0l0 1.453125l-6.859375 0l0 4.21875l7.609375 0l0 1.46875l-9.25 0z" fill-rule="nonzero"/><g filter="url(#shadowFilter-p.3)"><use xlink:href="#p.3" transform="matrix(1.0 0.0 0.0 1.0 0.0 15.0)"/></g><defs><filter id="shadowFilter-p.3" filterUnits="userSpaceOnUse"><feGaussianBlur in="SourceAlpha" stdDeviation="2.0" result="blur"/><feComponentTransfer in="blur" color-interpolation-filters="sRGB"><feFuncR type="linear" slope="0" intercept="0.5568628"/><feFuncG type="linear" slope="0" intercept="0.4862745"/><feFuncB type="linear" slope="0" intercept="0.7647059"/><feFuncA type="linear" slope="0.5" intercept="0"/></feComponentTransfer></filter></defs><g id="p.3"><path fill="#a4c2f4" d="m846.2441 93.81797l0 0c0 -10.625534 8.6137085 -19.239227 19.239258 -19.239227l120.70264 0c5.102539 0 9.996155 2.0269852 13.604187 5.6350403c3.6080322 3.608055 5.63501 8.501625 5.63501 13.604187l0 76.95461c0 10.625534 -8.613647 19.239227 -19.239197 19.239227l-120.70264 0c-10.625549 0 -19.239258 -8.613693 -19.239258 -19.239227z" fill-rule="evenodd"/><path stroke="#000000" stroke-width="1.0" stroke-linejoin="round" stroke-linecap="butt" d="m846.2441 93.81797l0 0c0 -10.625534 8.6137085 -19.239227 19.239258 -19.239227l120.70264 0c5.102539 0 9.996155 2.0269852 13.604187 5.6350403c3.6080322 3.608055 5.63501 8.501625 5.63501 13.604187l0 76.95461c0 10.625534 -8.613647 19.239227 -19.239197 19.239227l-120.70264 0c-10.625549 0 -19.239258 -8.613693 -19.239258 -19.239227z" fill-rule="evenodd"/><path fill="#000000" d="m878.73694 134.09152l1.640625 0.40625q-0.515625 2.03125 -1.859375 3.09375q-1.34375 1.0625 -3.28125 1.0625q-2.0 0 -3.265625 -0.8125q-1.25 -0.828125 -1.90625 -2.375q-0.65625 -1.546875 -0.65625 -3.328125q0 -1.9375 0.734375 -3.375q0.75 -1.453125 2.109375 -2.1875q1.375 -0.75 3.015625 -0.75q1.859375 0 3.125 0.953125q1.28125 0.9375 1.765625 2.65625l-1.609375 0.375q-0.4375 -1.34375 -1.265625 -1.953125q-0.8125 -0.625 -2.046875 -0.625q-1.4375 0 -2.40625 0.6875q-0.953125 0.671875 -1.34375 1.828125q-0.375 1.15625 -0.375 2.390625q0 1.578125 0.453125 2.765625q0.46875 1.171875 1.4375 1.765625q0.96875 0.578125 2.109375 0.578125q1.375 0 2.328125 -0.796875q0.953125 -0.796875 1.296875 -2.359375zm3.170044 -1.703125q0 -3.078125 1.65625 -4.828125q1.65625 -1.75 4.28125 -1.75q1.71875 0 3.09375 0.828125q1.375 0.8125 2.09375 2.28125q0.734375 1.46875 0.734375 3.328125q0 1.890625 -0.765625 3.390625q-0.765625 1.484375 -2.15625 2.25q-1.390625 0.765625 -3.015625 0.765625q-1.75 0 -3.125 -0.84375q-1.375 -0.859375 -2.09375 -2.3125q-0.703125 -1.46875 -0.703125 -3.109375zm1.6875 0.03125q0 2.234375 1.203125 3.53125q1.203125 1.296875 3.03125 1.296875q1.84375 0 3.03125 -1.296875q1.203125 -1.3125 1.203125 -3.703125q0 -1.515625 -0.515625 -2.640625q-0.5 -1.140625 -1.484375 -1.75q-0.984375 -0.625 -2.21875 -0.625q-1.734375 0 -3.0 1.203125q-1.25 1.1875 -1.25 3.984375zm12.228394 6.015625l0 -12.40625l2.46875 0l2.9375 8.78125q0.40625 1.234375 0.59375 1.84375q0.21875 -0.6875 0.65625 -2.0l2.984375 -8.625l2.203125 0l0 12.40625l-1.578125 0l0 -10.375l-3.609375 10.375l-1.484375 0l-3.578125 -10.5625l0 10.5625l-1.59375 0zm14.496948 0l0 -12.40625l4.671875 0q1.234375 0 1.890625 0.125q0.90625 0.140625 1.515625 0.578125q0.625 0.421875 1.0 1.203125q0.390625 0.765625 0.390625 1.6875q0 1.578125 -1.015625 2.671875q-1.0 1.09375 -3.640625 1.09375l-3.171875 0l0 5.046875l-1.640625 0zm1.640625 -6.5l3.203125 0q1.59375 0 2.25 -0.59375q0.671875 -0.59375 0.671875 -1.671875q0 -0.78125 -0.390625 -1.328125q-0.390625 -0.5625 -1.03125 -0.734375q-0.421875 -0.109375 -1.53125 -0.109375l-3.171875 0l0 4.4375zm9.838989 6.5l0 -12.40625l1.640625 0l0 10.9375l6.109375 0l0 1.46875l-7.75 0zm9.74646 0l0 -12.40625l8.96875 0l0 1.46875l-7.328125 0l0 3.796875l6.859375 0l0 1.453125l-6.859375 0l0 4.21875l7.609375 0l0 1.46875l-9.25 0zm14.682739 0l0 -10.9375l-4.09375 0l0 -1.46875l9.828125 0l0 1.46875l-4.09375 0l0 10.9375l-1.640625 0zm7.694092 0l0 -12.40625l1.640625 0l0 12.40625l-1.640625 0zm4.517456 0l0 -12.40625l1.6875 0l6.515625 9.734375l0 -9.734375l1.578125 0l0 12.40625l-1.6875 0l-6.515625 -9.75l0 9.75l-1.578125 0zm18.341919 -4.859375l0 -1.46875l5.25 0l0 4.609375q-1.203125 0.953125 -2.5 1.453125q-1.28125 0.484375 -2.625 0.484375q-1.828125 0 -3.328125 -0.78125q-1.5 -0.796875 -2.265625 -2.265625q-0.75 -1.484375 -0.75 -3.3125q0 -1.8125 0.75 -3.375q0.765625 -1.578125 2.1875 -2.328125q1.421875 -0.765625 3.265625 -0.765625q1.359375 0 2.4375 0.4375q1.09375 0.421875 1.703125 1.203125q0.625 0.78125 0.9375 2.03125l-1.46875 0.40625q-0.28125 -0.9375 -0.703125 -1.484375q-0.40625 -0.546875 -1.1875 -0.859375q-0.765625 -0.328125 -1.703125 -0.328125q-1.125 0 -1.953125 0.34375q-0.8125 0.328125 -1.3125 0.890625q-0.5 0.5625 -0.78125 1.234375q-0.484375 1.140625 -0.484375 2.484375q0 1.671875 0.5625 2.78125q0.578125 1.109375 1.671875 1.65625q1.09375 0.546875 2.328125 0.546875q1.0625 0 2.078125 -0.40625q1.015625 -0.421875 1.53125 -0.890625l0 -2.296875l-3.640625 0z" fill-rule="nonzero"/></g><g filter="url(#shadowFilter-p.4)"><use xlink:href="#p.4" transform="matrix(1.0 0.0 0.0 1.0 0.0 15.0)"/></g><defs><filter id="shadowFilter-p.4" filterUnits="userSpaceOnUse"><feGaussianBlur in="SourceAlpha" stdDeviation="2.0" result="blur"/><feComponentTransfer in="blur" color-interpolation-filters="sRGB"><feFuncR type="linear" slope="0" intercept="0.0"/><feFuncG type="linear" slope="0" intercept="0.0"/><feFuncB type="linear" slope="0" intercept="0.0"/><feFuncA type="linear" slope="0.5" intercept="0"/></feComponentTransfer></filter></defs><g id="p.4"><path fill="#a4c2f4" d="m1098.8031 93.81797l0 0c0 -10.625534 8.61377 -19.239227 19.239258 -19.239227l120.70264 0c5.102539 0 9.996216 2.0269852 13.604248 5.6350403c3.6080322 3.608055 5.63501 8.501625 5.63501 13.604187l0 76.95461c0 10.625534 -8.613647 19.239227 -19.239258 19.239227l-120.70264 0c-10.625488 0 -19.239258 -8.613693 -19.239258 -19.239227z" fill-rule="evenodd"/><path stroke="#000000" stroke-width="1.0" stroke-linejoin="round" stroke-linecap="butt" d="m1098.8031 93.81797l0 0c0 -10.625534 8.61377 -19.239227 19.239258 -19.239227l120.70264 0c5.102539 0 9.996216 2.0269852 13.604248 5.6350403c3.6080322 3.608055 5.63501 8.501625 5.63501 13.604187l0 76.95461c0 10.625534 -8.613647 19.239227 -19.239258 19.239227l-120.70264 0c-10.625488 0 -19.239258 -8.613693 -19.239258 -19.239227z" fill-rule="evenodd"/><path fill="#000000" d="m1140.9204 134.09152l1.640625 0.40625q-0.515625 2.03125 -1.859375 3.09375q-1.34375 1.0625 -3.28125 1.0625q-2.0 0 -3.265625 -0.8125q-1.25 -0.828125 -1.90625 -2.375q-0.65625 -1.546875 -0.65625 -3.328125q0 -1.9375 0.734375 -3.375q0.75 -1.453125 2.109375 -2.1875q1.375 -0.75 3.015625 -0.75q1.859375 0 3.125 0.953125q1.28125 0.9375 1.765625 2.65625l-1.609375 0.375q-0.4375 -1.34375 -1.265625 -1.953125q-0.8125 -0.625 -2.046875 -0.625q-1.4375 0 -2.40625 0.6875q-0.953125 0.671875 -1.34375 1.828125q-0.375 1.15625 -0.375 2.390625q0 1.578125 0.453125 2.765625q0.46875 1.171875 1.4375 1.765625q0.96875 0.578125 2.109375 0.578125q1.375 0 2.328125 -0.796875q0.953125 -0.796875 1.296875 -2.359375zm3.170044 -1.703125q0 -3.078125 1.65625 -4.828125q1.65625 -1.75 4.28125 -1.75q1.71875 0 3.09375 0.828125q1.375 0.8125 2.09375 2.28125q0.734375 1.46875 0.734375 3.328125q0 1.890625 -0.765625 3.390625q-0.765625 1.484375 -2.15625 2.25q-1.390625 0.765625 -3.015625 0.765625q-1.75 0 -3.125 -0.84375q-1.375 -0.859375 -2.09375 -2.3125q-0.703125 -1.46875 -0.703125 -3.109375zm1.6875 0.03125q0 2.234375 1.203125 3.53125q1.203125 1.296875 3.03125 1.296875q1.84375 0 3.03125 -1.296875q1.203125 -1.3125 1.203125 -3.703125q0 -1.515625 -0.515625 -2.640625q-0.5 -1.140625 -1.484375 -1.75q-0.984375 -0.625 -2.21875 -0.625q-1.734375 0 -3.0 1.203125q-1.25 1.1875 -1.25 3.984375zm12.228394 6.015625l0 -12.40625l2.46875 0l2.9375 8.78125q0.40625 1.234375 0.59375 1.84375q0.21875 -0.6875 0.65625 -2.0l2.984375 -8.625l2.203125 0l0 12.40625l-1.578125 0l0 -10.375l-3.609375 10.375l-1.484375 0l-3.578125 -10.5625l0 10.5625l-1.59375 0zm14.496948 0l0 -12.40625l4.671875 0q1.234375 0 1.890625 0.125q0.90625 0.140625 1.515625 0.578125q0.625 0.421875 1.0 1.203125q0.390625 0.765625 0.390625 1.6875q0 1.578125 -1.015625 2.671875q-1.0 1.09375 -3.640625 1.09375l-3.171875 0l0 5.046875l-1.640625 0zm1.640625 -6.5l3.203125 0q1.59375 0 2.25 -0.59375q0.671875 -0.59375 0.671875 -1.671875q0 -0.78125 -0.390625 -1.328125q-0.390625 -0.5625 -1.03125 -0.734375q-0.421875 -0.109375 -1.53125 -0.109375l-3.171875 0l0 4.4375zm9.838989 6.5l0 -12.40625l1.640625 0l0 10.9375l6.109375 0l0 1.46875l-7.75 0zm9.74646 0l0 -12.40625l8.96875 0l0 1.46875l-7.328125 0l0 3.796875l6.859375 0l0 1.453125l-6.859375 0l0 4.21875l7.609375 0l0 1.46875l-9.25 0zm14.682739 0l0 -10.9375l-4.09375 0l0 -1.46875l9.828125 0l0 1.46875l-4.09375 0l0 10.9375l-1.640625 0zm7.459717 0l0 -12.40625l8.96875 0l0 1.46875l-7.328125 0l0 3.796875l6.859375 0l0 1.453125l-6.859375 0l0 4.21875l7.609375 0l0 1.46875l-9.25 0z" fill-rule="nonzero"/></g><path fill="#b4a7d6" d="m77.09974 320.50565l0 0c0 -10.625549 8.613693 -19.239227 19.239227 -19.239227l120.702644 0c5.1025543 0 9.99614 2.0269775 13.604187 5.6350403c3.6080627 3.6080322 5.6350403 8.501617 5.6350403 13.604187l0 76.95459c0 10.625549 -8.613693 19.239227 -19.239227 19.239227l-120.702644 0c-10.625534 0 -19.239227 -8.613678 -19.239227 -19.239227z" fill-rule="evenodd"/><path stroke="#000000" stroke-width="1.0" stroke-linejoin="round" stroke-linecap="butt" d="m77.09974 320.50565l0 0c0 -10.625549 8.613693 -19.239227 19.239227 -19.239227l120.702644 0c5.1025543 0 9.99614 2.0269775 13.604187 5.6350403c3.6080627 3.6080322 5.6350403 8.501617 5.6350403 13.604187l0 76.95459c0 10.625549 -8.613693 19.239227 -19.239227 19.239227l-120.702644 0c-10.625534 0 -19.239227 -8.613678 -19.239227 -19.239227z" fill-rule="evenodd"/><path fill="#000000" d="m108.46819 365.12292l0 -12.40625l5.5 0q1.65625 0 2.515625 0.34375q0.875 0.328125 1.390625 1.171875q0.515625 0.84375 0.515625 1.875q0 1.3125 -0.859375 2.21875q-0.859375 0.90625 -2.640625 1.15625q0.65625 0.3125 1.0 0.609375q0.71875 0.671875 1.359375 1.65625l2.15625 3.375l-2.0625 0l-1.640625 -2.578125q-0.71875 -1.125 -1.1875 -1.703125q-0.46875 -0.59375 -0.84375 -0.828125q-0.359375 -0.25 -0.734375 -0.34375q-0.28125 -0.0625 -0.921875 -0.0625l-1.90625 0l0 5.515625l-1.640625 0zm1.640625 -6.921875l3.53125 0q1.125 0 1.75 -0.234375q0.640625 -0.234375 0.96875 -0.75q0.34375 -0.515625 0.34375 -1.109375q0 -0.890625 -0.640625 -1.453125q-0.640625 -0.5625 -2.03125 -0.5625l-3.921875 0l0 4.109375zm10.888824 6.921875l0 -12.40625l8.968742 0l0 1.46875l-7.3281174 0l0 3.796875l6.8593674 0l0 1.453125l-6.8593674 0l0 4.21875l7.6093674 0l0 1.46875l-9.249992 0zm10.963966 -3.984375l1.546875 -0.140625q0.109375 0.9375 0.5 1.53125q0.40625 0.59375 1.25 0.96875q0.859375 0.359375 1.90625 0.359375q0.9375 0 1.65625 -0.265625q0.734375 -0.28125 1.078125 -0.765625q0.34375 -0.5 0.34375 -1.078125q0 -0.578125 -0.34375 -1.015625q-0.328125 -0.4375 -1.109375 -0.734375q-0.5 -0.1875 -2.203125 -0.59375q-1.703125 -0.421875 -2.390625 -0.78125q-0.890625 -0.46875 -1.328125 -1.15625q-0.4375 -0.6875 -0.4375 -1.546875q0 -0.9375 0.53125 -1.75q0.53125 -0.8125 1.546875 -1.234375q1.03125 -0.421875 2.296875 -0.421875q1.375 0 2.421875 0.4375q1.0625 0.4375 1.625 1.3125q0.5625 0.859375 0.609375 1.953125l-1.578125 0.109375q-0.125 -1.171875 -0.859375 -1.765625q-0.734375 -0.609375 -2.15625 -0.609375q-1.484375 0 -2.171875 0.546875q-0.6875 0.546875 -0.6875 1.3125q0 0.671875 0.484375 1.109375q0.484375 0.421875 2.484375 0.875q2.0 0.453125 2.734375 0.796875q1.09375 0.5 1.609375 1.265625q0.515625 0.765625 0.515625 1.765625q0 0.984375 -0.578125 1.859375q-0.5625 0.875 -1.625 1.375q-1.0625 0.484375 -2.390625 0.484375q-1.6875 0 -2.828125 -0.484375q-1.125 -0.5 -1.78125 -1.484375q-0.640625 -0.984375 -0.671875 -2.234375zm12.151474 3.984375l0 -12.40625l8.96875 0l0 1.46875l-7.328125 0l0 3.796875l6.859375 0l0 1.453125l-6.859375 0l0 4.21875l7.609375 0l0 1.46875l-9.25 0zm14.682724 0l0 -10.9375l-4.09375 0l0 -1.46875l9.828125 0l0 1.46875l-4.09375 0l0 10.9375l-1.640625 0zm10.584717 0l0 -10.9375l-4.09375 0l0 -1.46875l9.828125 0l0 1.46875l-4.09375 0l0 10.9375l-1.640625 0zm7.694092 0l0 -12.40625l1.640625 0l0 12.40625l-1.640625 0zm4.517441 0l0 -12.40625l1.6875 0l6.515625 9.734375l0 -9.734375l1.578125 0l0 12.40625l-1.6875 0l-6.515625 -9.75l0 9.75l-1.578125 0zm18.34195 -4.859375l0 -1.46875l5.25 0l0 4.609375q-1.203125 0.953125 -2.5 1.453125q-1.28125 0.484375 -2.625 0.484375q-1.828125 0 -3.328125 -0.78125q-1.5 -0.796875 -2.265625 -2.265625q-0.75 -1.484375 -0.75 -3.3125q0 -1.8125 0.75 -3.375q0.765625 -1.578125 2.1875 -2.328125q1.421875 -0.765625 3.265625 -0.765625q1.359375 0 2.4375 0.4375q1.09375 0.421875 1.703125 1.203125q0.625 0.78125 0.9375 2.03125l-1.46875 0.40625q-0.28125 -0.9375 -0.703125 -1.484375q-0.40625 -0.546875 -1.1875 -0.859375q-0.765625 -0.328125 -1.703125 -0.328125q-1.125 0 -1.953125 0.34375q-0.8125 0.328125 -1.3125 0.890625q-0.5 0.5625 -0.78125 1.234375q-0.484375 1.140625 -0.484375 2.484375q0 1.671875 0.5625 2.78125q0.578125 1.109375 1.671875 1.65625q1.09375 0.546875 2.328125 0.546875q1.0625 0 2.078125 -0.40625q1.015625 -0.421875 1.53125 -0.890625l0 -2.296875l-3.640625 0z" fill-rule="nonzero"/><g filter="url(#shadowFilter-p.5)"><use xlink:href="#p.5" transform="matrix(1.0 0.0 0.0 1.0 0.0 15.0)"/></g><defs><filter id="shadowFilter-p.5" filterUnits="userSpaceOnUse"><feGaussianBlur in="SourceAlpha" stdDeviation="2.0" result="blur"/><feComponentTransfer in="blur" color-interpolation-filters="sRGB"><feFuncR type="linear" slope="0" intercept="0.0"/><feFuncG type="linear" slope="0" intercept="0.0"/><feFuncB type="linear" slope="0" intercept="0.0"/><feFuncA type="linear" slope="0.5" intercept="0"/></feComponentTransfer></filter></defs><g id="p.5"><path fill="#ea9999" d="m77.09974 581.14343l0 0c0 -10.625549 8.613693 -19.239258 19.239227 -19.239258l120.702644 0c5.1025543 0 9.99614 2.0270386 13.604187 5.635071c3.6080627 3.6080322 5.6350403 8.501648 5.6350403 13.604187l0 76.95459c0 10.625549 -8.613693 19.239258 -19.239227 19.239258l-120.702644 0c-10.625534 0 -19.239227 -8.6137085 -19.239227 -19.239258z" fill-rule="evenodd"/><path stroke="#000000" stroke-width="1.0" stroke-linejoin="round" stroke-linecap="butt" d="m77.09974 581.14343l0 0c0 -10.625549 8.613693 -19.239258 19.239227 -19.239258l120.702644 0c5.1025543 0 9.99614 2.0270386 13.604187 5.635071c3.6080627 3.6080322 5.6350403 8.501648 5.6350403 13.604187l0 76.95459c0 10.625549 -8.613693 19.239258 -19.239227 19.239258l-120.702644 0c-10.625534 0 -19.239227 -8.6137085 -19.239227 -19.239258z" fill-rule="evenodd"/><path fill="#000000" d="m116.22421 621.77637l1.546875 -0.140625q0.109375 0.9375 0.5 1.53125q0.40625 0.59375 1.25 0.96875q0.859375 0.359375 1.90625 0.359375q0.9375 0 1.65625 -0.265625q0.734375 -0.28125 1.078125 -0.765625q0.34375 -0.5 0.34375 -1.078125q0 -0.578125 -0.34375 -1.015625q-0.328125 -0.4375 -1.109375 -0.734375q-0.5 -0.1875 -2.203125 -0.59375q-1.703125 -0.421875 -2.390625 -0.78125q-0.890625 -0.46875 -1.328125 -1.15625q-0.4375 -0.6875 -0.4375 -1.546875q0 -0.9375 0.53125 -1.75q0.53125 -0.8125 1.546875 -1.234375q1.03125 -0.421875 2.296875 -0.421875q1.375 0 2.421875 0.4375q1.0625 0.4375 1.625 1.3125q0.5625 0.859375 0.609375 1.953125l-1.578125 0.109375q-0.125 -1.171875 -0.859375 -1.765625q-0.734375 -0.609375 -2.15625 -0.609375q-1.484375 0 -2.171875 0.546875q-0.6875 0.546875 -0.6875 1.3125q0 0.671875 0.484375 1.109375q0.484375 0.421875 2.484375 0.875q2.0 0.453125 2.734375 0.796875q1.09375 0.5 1.609375 1.265625q0.515625 0.765625 0.515625 1.765625q0 0.984375 -0.578125 1.859375q-0.5625 0.875 -1.625 1.375q-1.0625 0.484375 -2.390625 0.484375q-1.6875 0 -2.828125 -0.484375q-1.125 -0.5 -1.78125 -1.484375q-0.640625 -0.984375 -0.671875 -2.234375zm15.276474 3.984375l0 -10.9375l-4.09375 0l0 -1.46875l9.828125 0l0 1.46875l-4.09375 0l0 10.9375l-1.640625 0zm6.6153107 -6.046875q0 -3.078125 1.65625 -4.828125q1.65625 -1.75 4.28125 -1.75q1.71875 0 3.09375 0.828125q1.375 0.8125 2.09375 2.28125q0.734375 1.46875 0.734375 3.328125q0 1.890625 -0.765625 3.390625q-0.765625 1.484375 -2.15625 2.25q-1.390625 0.765625 -3.015625 0.765625q-1.75 0 -3.125 -0.84375q-1.375 -0.859375 -2.09375 -2.3125q-0.703125 -1.46875 -0.703125 -3.109375zm1.6875 0.03125q0 2.234375 1.203125 3.53125q1.203125 1.296875 3.03125 1.296875q1.84375 0 3.03125 -1.296875q1.203125 -1.3125 1.203125 -3.703125q0 -1.515625 -0.515625 -2.640625q-0.5 -1.140625 -1.484375 -1.75q-0.984375 -0.625 -2.21875 -0.625q-1.734375 0 -3.0 1.203125q-1.25 1.1875 -1.25 3.984375zm12.290878 6.015625l0 -12.40625l4.671875 0q1.234375 0 1.890625 0.125q0.90625 0.140625 1.515625 0.578125q0.625 0.421875 1.0 1.203125q0.390625 0.765625 0.390625 1.6875q0 1.578125 -1.015625 2.671875q-1.0 1.09375 -3.640625 1.09375l-3.171875 0l0 5.046875l-1.640625 0zm1.640625 -6.5l3.203125 0q1.59375 0 2.25 -0.59375q0.671875 -0.59375 0.671875 -1.671875q0 -0.78125 -0.390625 -1.328125q-0.390625 -0.5625 -1.03125 -0.734375q-0.421875 -0.109375 -1.53125 -0.109375l-3.171875 0l0 4.4375zm9.917099 6.5l0 -12.40625l4.671875 0q1.234375 0 1.890625 0.125q0.90625 0.140625 1.515625 0.578125q0.625 0.421875 1.0 1.203125q0.390625 0.765625 0.390625 1.6875q0 1.578125 -1.015625 2.671875q-1.0 1.09375 -3.640625 1.09375l-3.171875 0l0 5.046875l-1.640625 0zm1.640625 -6.5l3.203125 0q1.59375 0 2.25 -0.59375q0.671875 -0.59375 0.671875 -1.671875q0 -0.78125 -0.390625 -1.328125q-0.390625 -0.5625 -1.03125 -0.734375q-0.421875 -0.109375 -1.53125 -0.109375l-3.171875 0l0 4.4375zm9.948349 6.5l0 -12.40625l8.96875 0l0 1.46875l-7.328125 0l0 3.796875l6.859375 0l0 1.453125l-6.859375 0l0 4.21875l7.609375 0l0 1.46875l-9.25 0zm11.526474 0l0 -12.40625l4.265625 0q1.453125 0 2.203125 0.1875q1.078125 0.234375 1.828125 0.875q0.984375 0.828125 1.46875 2.125q0.484375 1.296875 0.484375 2.953125q0 1.40625 -0.328125 2.5q-0.328125 1.09375 -0.84375 1.8125q-0.515625 0.703125 -1.140625 1.125q-0.609375 0.40625 -1.484375 0.625q-0.859375 0.203125 -1.984375 0.203125l-4.46875 0zm1.640625 -1.46875l2.640625 0q1.234375 0 1.921875 -0.21875q0.703125 -0.234375 1.125 -0.640625q0.578125 -0.59375 0.90625 -1.578125q0.328125 -0.984375 0.328125 -2.390625q0 -1.9375 -0.640625 -2.984375q-0.640625 -1.046875 -1.5625 -1.40625q-0.65625 -0.25 -2.125 -0.25l-2.59375 0l0 9.46875z" fill-rule="nonzero"/></g><path fill="#ea9999" d="m341.13123 581.14343l0 0c0 -10.625549 8.6137085 -19.239258 19.239227 -19.239258l120.70267 0c5.102539 0 9.996124 2.0270386 13.604187 5.635071c3.6080322 3.6080322 5.6350403 8.501648 5.6350403 13.604187l0 76.95459c0 10.625549 -8.6137085 19.239258 -19.239227 19.239258l-120.70267 0c-10.625519 0 -19.239227 -8.6137085 -19.239227 -19.239258z" fill-rule="evenodd"/><path stroke="#000000" stroke-width="1.0" stroke-linejoin="round" stroke-linecap="butt" d="m341.13123 581.14343l0 0c0 -10.625549 8.6137085 -19.239258 19.239227 -19.239258l120.70267 0c5.102539 0 9.996124 2.0270386 13.604187 5.635071c3.6080322 3.6080322 5.6350403 8.501648 5.6350403 13.604187l0 76.95459c0 10.625549 -8.6137085 19.239258 -19.239227 19.239258l-120.70267 0c-10.625519 0 -19.239227 -8.6137085 -19.239227 -19.239258z" fill-rule="evenodd"/><path fill="#000000" d="m376.8882 621.77637l1.546875 -0.140625q0.109375 0.9375 0.5 1.53125q0.40625 0.59375 1.25 0.96875q0.859375 0.359375 1.90625 0.359375q0.9375 0 1.65625 -0.265625q0.734375 -0.28125 1.078125 -0.765625q0.34375 -0.5 0.34375 -1.078125q0 -0.578125 -0.34375 -1.015625q-0.328125 -0.4375 -1.109375 -0.734375q-0.5 -0.1875 -2.203125 -0.59375q-1.703125 -0.421875 -2.390625 -0.78125q-0.890625 -0.46875 -1.328125 -1.15625q-0.4375 -0.6875 -0.4375 -1.546875q0 -0.9375 0.53125 -1.75q0.53125 -0.8125 1.546875 -1.234375q1.03125 -0.421875 2.296875 -0.421875q1.375 0 2.421875 0.4375q1.0625 0.4375 1.625 1.3125q0.5625 0.859375 0.609375 1.953125l-1.578125 0.109375q-0.125 -1.171875 -0.859375 -1.765625q-0.734375 -0.609375 -2.15625 -0.609375q-1.484375 0 -2.171875 0.546875q-0.6875 0.546875 -0.6875 1.3125q0 0.671875 0.484375 1.109375q0.484375 0.421875 2.484375 0.875q2.0 0.453125 2.734375 0.796875q1.09375 0.5 1.609375 1.265625q0.515625 0.765625 0.515625 1.765625q0 0.984375 -0.578125 1.859375q-0.5625 0.875 -1.625 1.375q-1.0625 0.484375 -2.390625 0.484375q-1.6875 0 -2.828125 -0.484375q-1.125 -0.5 -1.78125 -1.484375q-0.640625 -0.984375 -0.671875 -2.234375zm15.276489 3.984375l0 -10.9375l-4.09375 0l0 -1.46875l9.828125 0l0 1.46875l-4.09375 0l0 10.9375l-1.640625 0zm6.6152954 -6.046875q0 -3.078125 1.65625 -4.828125q1.65625 -1.75 4.28125 -1.75q1.71875 0 3.09375 0.828125q1.375 0.8125 2.09375 2.28125q0.734375 1.46875 0.734375 3.328125q0 1.890625 -0.765625 3.390625q-0.765625 1.484375 -2.15625 2.25q-1.390625 0.765625 -3.015625 0.765625q-1.75 0 -3.125 -0.84375q-1.375 -0.859375 -2.09375 -2.3125q-0.703125 -1.46875 -0.703125 -3.109375zm1.6875 0.03125q0 2.234375 1.203125 3.53125q1.203125 1.296875 3.03125 1.296875q1.84375 0 3.03125 -1.296875q1.203125 -1.3125 1.203125 -3.703125q0 -1.515625 -0.515625 -2.640625q-0.5 -1.140625 -1.484375 -1.75q-0.984375 -0.625 -2.21875 -0.625q-1.734375 0 -3.0 1.203125q-1.25 1.1875 -1.25 3.984375zm12.290894 6.015625l0 -12.40625l4.671875 0q1.234375 0 1.890625 0.125q0.90625 0.140625 1.515625 0.578125q0.625 0.421875 1.0 1.203125q0.390625 0.765625 0.390625 1.6875q0 1.578125 -1.015625 2.671875q-1.0 1.09375 -3.640625 1.09375l-3.171875 0l0 5.046875l-1.640625 0zm1.640625 -6.5l3.203125 0q1.59375 0 2.25 -0.59375q0.671875 -0.59375 0.671875 -1.671875q0 -0.78125 -0.390625 -1.328125q-0.390625 -0.5625 -1.03125 -0.734375q-0.421875 -0.109375 -1.53125 -0.109375l-3.171875 0l0 4.4375zm9.917084 6.5l0 -12.40625l4.671875 0q1.234375 0 1.890625 0.125q0.90625 0.140625 1.515625 0.578125q0.625 0.421875 1.0 1.203125q0.390625 0.765625 0.390625 1.6875q0 1.578125 -1.015625 2.671875q-1.0 1.09375 -3.640625 1.09375l-3.171875 0l0 5.046875l-1.640625 0zm1.640625 -6.5l3.203125 0q1.59375 0 2.25 -0.59375q0.671875 -0.59375 0.671875 -1.671875q0 -0.78125 -0.390625 -1.328125q-0.390625 -0.5625 -1.03125 -0.734375q-0.421875 -0.109375 -1.53125 -0.109375l-3.171875 0l0 4.4375zm10.182739 6.5l0 -12.40625l1.640625 0l0 12.40625l-1.640625 0zm4.5174255 0l0 -12.40625l1.6875 0l6.515625 9.734375l0 -9.734375l1.578125 0l0 12.40625l-1.6875 0l-6.515625 -9.75l0 9.75l-1.578125 0zm18.34195 -4.859375l0 -1.46875l5.25 0l0 4.609375q-1.203125 0.953125 -2.5 1.453125q-1.28125 0.484375 -2.625 0.484375q-1.828125 0 -3.328125 -0.78125q-1.5 -0.796875 -2.265625 -2.265625q-0.75 -1.484375 -0.75 -3.3125q0 -1.8125 0.75 -3.375q0.765625 -1.578125 2.1875 -2.328125q1.421875 -0.765625 3.265625 -0.765625q1.359375 0 2.4375 0.4375q1.09375 0.421875 1.703125 1.203125q0.625 0.78125 0.9375 2.03125l-1.46875 0.40625q-0.28125 -0.9375 -0.703125 -1.484375q-0.40625 -0.546875 -1.1875 -0.859375q-0.765625 -0.328125 -1.703125 -0.328125q-1.125 0 -1.953125 0.34375q-0.8125 0.328125 -1.3125 0.890625q-0.5 0.5625 -0.78125 1.234375q-0.484375 1.140625 -0.484375 2.484375q0 1.671875 0.5625 2.78125q0.578125 1.109375 1.671875 1.65625q1.09375 0.546875 2.328125 0.546875q1.0625 0 2.078125 -0.40625q1.015625 -0.421875 1.53125 -0.890625l0 -2.296875l-3.640625 0z" fill-rule="nonzero"/><path fill="#ffffff" d="m592.937 581.14343l0 0c0 -10.625549 8.6137085 -19.239258 19.239197 -19.239258l120.7027 0c5.102539 0 9.996094 2.0270386 13.604187 5.635071c3.6080322 3.6080322 5.63501 8.501648 5.63501 13.604187l0 76.95459c0 10.625549 -8.6137085 19.239258 -19.239197 19.239258l-120.7027 0c-10.625488 0 -19.239197 -8.6137085 -19.239197 -19.239258z" fill-rule="evenodd"/><path stroke="#000000" stroke-width="1.0" stroke-linejoin="round" stroke-linecap="butt" d="m592.937 581.14343l0 0c0 -10.625549 8.6137085 -19.239258 19.239197 -19.239258l120.7027 0c5.102539 0 9.996094 2.0270386 13.604187 5.635071c3.6080322 3.6080322 5.63501 8.501648 5.63501 13.604187l0 76.95459c0 10.625549 -8.6137085 19.239258 -19.239197 19.239258l-120.7027 0c-10.625488 0 -19.239197 -8.6137085 -19.239197 -19.239258z" fill-rule="evenodd"/><path fill="#000000" d="m638.4217 621.417l1.640625 0.40625q-0.515625 2.03125 -1.859375 3.09375q-1.34375 1.0625 -3.28125 1.0625q-2.0 0 -3.265625 -0.8125q-1.25 -0.828125 -1.90625 -2.375q-0.65625 -1.546875 -0.65625 -3.328125q0 -1.9375 0.734375 -3.375q0.75 -1.453125 2.109375 -2.1875q1.375 -0.75 3.015625 -0.75q1.859375 0 3.125 0.953125q1.28125 0.9375 1.765625 2.65625l-1.609375 0.375q-0.4375 -1.34375 -1.265625 -1.953125q-0.8125 -0.625 -2.046875 -0.625q-1.4375 0 -2.40625 0.6875q-0.953125 0.671875 -1.34375 1.828125q-0.375 1.15625 -0.375 2.390625q0 1.578125 0.453125 2.765625q0.46875 1.171875 1.4375 1.765625q0.96875 0.578125 2.109375 0.578125q1.375 0 2.328125 -0.796875q0.953125 -0.796875 1.296875 -2.359375zm3.59198 4.34375l0 -12.40625l1.640625 0l0 10.9375l6.109375 0l0 1.46875l-7.75 0zm9.74646 0l0 -12.40625l8.96875 0l0 1.46875l-7.328125 0l0 3.796875l6.859375 0l0 1.453125l-6.859375 0l0 4.21875l7.609375 0l0 1.46875l-9.25 0zm10.151489 0l4.765625 -12.40625l1.765625 0l5.078125 12.40625l-1.859375 0l-1.453125 -3.75l-5.1875 0l-1.359375 3.75l-1.75 0zm3.578125 -5.09375l4.21875 0l-1.296875 -3.4375q-0.59375 -1.5625 -0.890625 -2.5625q-0.234375 1.1875 -0.65625 2.359375l-1.375 3.640625zm9.370178 5.09375l0 -12.40625l5.5 0q1.65625 0 2.515625 0.34375q0.875 0.328125 1.390625 1.171875q0.515625 0.84375 0.515625 1.875q0 1.3125 -0.859375 2.21875q-0.859375 0.90625 -2.640625 1.15625q0.65625 0.3125 1.0 0.609375q0.71875 0.671875 1.359375 1.65625l2.15625 3.375l-2.0625 0l-1.640625 -2.578125q-0.71875 -1.125 -1.1875 -1.703125q-0.46875 -0.59375 -0.84375 -0.828125q-0.359375 -0.25 -0.734375 -0.34375q-0.28125 -0.0625 -0.921875 -0.0625l-1.90625 0l0 5.515625l-1.640625 0zm1.640625 -6.921875l3.53125 0q1.125 0 1.75 -0.234375q0.640625 -0.234375 0.96875 -0.75q0.34375 -0.515625 0.34375 -1.109375q0 -0.890625 -0.640625 -1.453125q-0.640625 -0.5625 -2.03125 -0.5625l-3.921875 0l0 4.109375zm11.12323 6.921875l0 -12.40625l1.640625 0l0 12.40625l-1.640625 0zm4.517456 0l0 -12.40625l1.6875 0l6.515625 9.734375l0 -9.734375l1.578125 0l0 12.40625l-1.6875 0l-6.515625 -9.75l0 9.75l-1.578125 0zm18.341919 -4.859375l0 -1.46875l5.25 0l0 4.609375q-1.203125 0.953125 -2.5 1.453125q-1.28125 0.484375 -2.625 0.484375q-1.828125 0 -3.328125 -0.78125q-1.5 -0.796875 -2.265625 -2.265625q-0.75 -1.484375 -0.75 -3.3125q0 -1.8125 0.75 -3.375q0.765625 -1.578125 2.1875 -2.328125q1.421875 -0.765625 3.265625 -0.765625q1.359375 0 2.4375 0.4375q1.09375 0.421875 1.703125 1.203125q0.625 0.78125 0.9375 2.03125l-1.46875 0.40625q-0.28125 -0.9375 -0.703125 -1.484375q-0.40625 -0.546875 -1.1875 -0.859375q-0.765625 -0.328125 -1.703125 -0.328125q-1.125 0 -1.953125 0.34375q-0.8125 0.328125 -1.3125 0.890625q-0.5 0.5625 -0.78125 1.234375q-0.484375 1.140625 -0.484375 2.484375q0 1.671875 0.5625 2.78125q0.578125 1.109375 1.671875 1.65625q1.09375 0.546875 2.328125 0.546875q1.0625 0 2.078125 -0.40625q1.015625 -0.421875 1.53125 -0.890625l0 -2.296875l-3.640625 0z" fill-rule="nonzero"/><g filter="url(#shadowFilter-p.6)"><use xlink:href="#p.6" transform="matrix(1.0 0.0 0.0 1.0 0.0 15.0)"/></g><defs><filter id="shadowFilter-p.6" filterUnits="userSpaceOnUse"><feGaussianBlur in="SourceAlpha" stdDeviation="2.0" result="blur"/><feComponentTransfer in="blur" color-interpolation-filters="sRGB"><feFuncR type="linear" slope="0" intercept="0.0"/><feFuncG type="linear" slope="0" intercept="0.0"/><feFuncB type="linear" slope="0" intercept="0.0"/><feFuncA type="linear" slope="0.5" intercept="0"/></feComponentTransfer></filter></defs><g id="p.6"><path fill="#ffe599" d="m844.7428 581.14343l0 0c0 -10.625549 8.6137085 -19.239258 19.239197 -19.239258l120.70264 0c5.1026 0 9.996155 2.0270386 13.604187 5.635071c3.6080933 3.6080322 5.635071 8.501648 5.635071 13.604187l0 76.95459c0 10.625549 -8.6137085 19.239258 -19.239258 19.239258l-120.70264 0c-10.625488 0 -19.239197 -8.6137085 -19.239197 -19.239258z" fill-rule="evenodd"/><path stroke="#000000" stroke-width="1.0" stroke-linejoin="round" stroke-linecap="butt" d="m844.7428 581.14343l0 0c0 -10.625549 8.6137085 -19.239258 19.239197 -19.239258l120.70264 0c5.1026 0 9.996155 2.0270386 13.604187 5.635071c3.6080933 3.6080322 5.635071 8.501648 5.635071 13.604187l0 76.95459c0 10.625549 -8.6137085 19.239258 -19.239258 19.239258l-120.70264 0c-10.625488 0 -19.239197 -8.6137085 -19.239197 -19.239258z" fill-rule="evenodd"/><path fill="#000000" d="m882.5767 625.76074l4.765625 -12.40625l1.765625 0l5.078125 12.40625l-1.859375 0l-1.453125 -3.75l-5.1875 0l-1.359375 3.75l-1.75 0zm3.578125 -5.09375l4.21875 0l-1.296875 -3.4375q-0.59375 -1.5625 -0.890625 -2.5625q-0.234375 1.1875 -0.65625 2.359375l-1.375 3.640625zm9.276428 5.09375l0 -12.40625l4.65625 0q1.421875 0 2.28125 0.375q0.859375 0.375 1.34375 1.171875q0.484375 0.78125 0.484375 1.625q0 0.796875 -0.4375 1.5q-0.421875 0.703125 -1.296875 1.140625q1.125 0.328125 1.734375 1.125q0.609375 0.796875 0.609375 1.875q0 0.875 -0.375 1.625q-0.359375 0.734375 -0.90625 1.140625q-0.546875 0.40625 -1.359375 0.625q-0.8125 0.203125 -2.0 0.203125l-4.734375 0zm1.640625 -7.1875l2.6875 0q1.09375 0 1.5625 -0.140625q0.625 -0.1875 0.9375 -0.625q0.328125 -0.4375 0.328125 -1.078125q0 -0.625 -0.296875 -1.09375q-0.296875 -0.46875 -0.859375 -0.640625q-0.546875 -0.171875 -1.875 -0.171875l-2.484375 0l0 3.75zm0 5.71875l3.09375 0q0.796875 0 1.109375 -0.046875q0.578125 -0.109375 0.953125 -0.34375q0.375 -0.234375 0.625 -0.6875q0.25 -0.453125 0.25 -1.046875q0 -0.703125 -0.359375 -1.203125q-0.359375 -0.515625 -0.984375 -0.71875q-0.625 -0.21875 -1.8125 -0.21875l-2.875 0l0 4.265625zm9.495239 -4.578125q0 -3.078125 1.65625 -4.828125q1.65625 -1.75 4.28125 -1.75q1.71875 0 3.09375 0.828125q1.375 0.8125 2.09375 2.28125q0.734375 1.46875 0.734375 3.328125q0 1.890625 -0.765625 3.390625q-0.765625 1.484375 -2.15625 2.25q-1.390625 0.765625 -3.015625 0.765625q-1.75 0 -3.125 -0.84375q-1.375 -0.859375 -2.09375 -2.3125q-0.703125 -1.46875 -0.703125 -3.109375zm1.6875 0.03125q0 2.234375 1.203125 3.53125q1.203125 1.296875 3.03125 1.296875q1.84375 0 3.03125 -1.296875q1.203125 -1.3125 1.203125 -3.703125q0 -1.515625 -0.515625 -2.640625q-0.5 -1.140625 -1.484375 -1.75q-0.984375 -0.625 -2.21875 -0.625q-1.734375 0 -3.0 1.203125q-1.25 1.1875 -1.25 3.984375zm12.306519 6.015625l0 -12.40625l5.5 0q1.65625 0 2.515625 0.34375q0.875 0.328125 1.390625 1.171875q0.515625 0.84375 0.515625 1.875q0 1.3125 -0.859375 2.21875q-0.859375 0.90625 -2.640625 1.15625q0.65625 0.3125 1.0 0.609375q0.71875 0.671875 1.359375 1.65625l2.15625 3.375l-2.0625 0l-1.640625 -2.578125q-0.71875 -1.125 -1.1875 -1.703125q-0.46875 -0.59375 -0.84375 -0.828125q-0.359375 -0.25 -0.734375 -0.34375q-0.28125 -0.0625 -0.921875 -0.0625l-1.90625 0l0 5.515625l-1.640625 0zm1.640625 -6.921875l3.53125 0q1.125 0 1.75 -0.234375q0.640625 -0.234375 0.96875 -0.75q0.34375 -0.515625 0.34375 -1.109375q0 -0.890625 -0.640625 -1.453125q-0.640625 -0.5625 -2.03125 -0.5625l-3.921875 0l0 4.109375zm13.700684 6.921875l0 -10.9375l-4.09375 0l0 -1.46875l9.828125 0l0 1.46875l-4.09375 0l0 10.9375l-1.640625 0zm7.459717 0l0 -12.40625l8.96875 0l0 1.46875l-7.328125 0l0 3.796875l6.859375 0l0 1.453125l-6.859375 0l0 4.21875l7.609375 0l0 1.46875l-9.25 0zm11.526428 0l0 -12.40625l4.265625 0q1.453125 0 2.203125 0.1875q1.078125 0.234375 1.828125 0.875q0.984375 0.828125 1.46875 2.125q0.484375 1.296875 0.484375 2.953125q0 1.40625 -0.328125 2.5q-0.328125 1.09375 -0.84375 1.8125q-0.515625 0.703125 -1.140625 1.125q-0.609375 0.40625 -1.484375 0.625q-0.859375 0.203125 -1.984375 0.203125l-4.46875 0zm1.640625 -1.46875l2.640625 0q1.234375 0 1.921875 -0.21875q0.703125 -0.234375 1.125 -0.640625q0.578125 -0.59375 0.90625 -1.578125q0.328125 -0.984375 0.328125 -2.390625q0 -1.9375 -0.640625 -2.984375q-0.640625 -1.046875 -1.5625 -1.40625q-0.65625 -0.25 -2.125 -0.25l-2.59375 0l0 9.46875z" fill-rule="nonzero"/></g><path fill="#ffe599" d="m1096.5486 581.14343l0 0c0 -10.625549 8.613647 -19.239258 19.239258 -19.239258l120.70264 0c5.102539 0 9.996094 2.0270386 13.604126 5.635071c3.6080322 3.6080322 5.63501 8.501648 5.63501 13.604187l0 76.95459c0 10.625549 -8.613647 19.239258 -19.239136 19.239258l-120.70264 0c-10.62561 0 -19.239258 -8.6137085 -19.239258 -19.239258z" fill-rule="evenodd"/><path stroke="#000000" stroke-width="1.0" stroke-linejoin="round" stroke-linecap="butt" d="m1096.5486 581.14343l0 0c0 -10.625549 8.613647 -19.239258 19.239258 -19.239258l120.70264 0c5.102539 0 9.996094 2.0270386 13.604126 5.635071c3.6080322 3.6080322 5.63501 8.501648 5.63501 13.604187l0 76.95459c0 10.625549 -8.613647 19.239258 -19.239136 19.239258l-120.70264 0c-10.62561 0 -19.239258 -8.6137085 -19.239258 -19.239258z" fill-rule="evenodd"/><path fill="#000000" d="m1134.3824 625.76074l4.765625 -12.40625l1.765625 0l5.078125 12.40625l-1.859375 0l-1.453125 -3.75l-5.1875 0l-1.359375 3.75l-1.75 0zm3.578125 -5.09375l4.21875 0l-1.296875 -3.4375q-0.59375 -1.5625 -0.890625 -2.5625q-0.234375 1.1875 -0.65625 2.359375l-1.375 3.640625zm9.276489 5.09375l0 -12.40625l4.65625 0q1.421875 0 2.28125 0.375q0.859375 0.375 1.34375 1.171875q0.484375 0.78125 0.484375 1.625q0 0.796875 -0.4375 1.5q-0.421875 0.703125 -1.296875 1.140625q1.125 0.328125 1.734375 1.125q0.609375 0.796875 0.609375 1.875q0 0.875 -0.375 1.625q-0.359375 0.734375 -0.90625 1.140625q-0.546875 0.40625 -1.359375 0.625q-0.8125 0.203125 -2.0 0.203125l-4.734375 0zm1.640625 -7.1875l2.6875 0q1.09375 0 1.5625 -0.140625q0.625 -0.1875 0.9375 -0.625q0.328125 -0.4375 0.328125 -1.078125q0 -0.625 -0.296875 -1.09375q-0.296875 -0.46875 -0.859375 -0.640625q-0.546875 -0.171875 -1.875 -0.171875l-2.484375 0l0 3.75zm0 5.71875l3.09375 0q0.796875 0 1.109375 -0.046875q0.578125 -0.109375 0.953125 -0.34375q0.375 -0.234375 0.625 -0.6875q0.25 -0.453125 0.25 -1.046875q0 -0.703125 -0.359375 -1.203125q-0.359375 -0.515625 -0.984375 -0.71875q-0.625 -0.21875 -1.8125 -0.21875l-2.875 0l0 4.265625zm9.495239 -4.578125q0 -3.078125 1.65625 -4.828125q1.65625 -1.75 4.28125 -1.75q1.71875 0 3.09375 0.828125q1.375 0.8125 2.09375 2.28125q0.734375 1.46875 0.734375 3.328125q0 1.890625 -0.765625 3.390625q-0.765625 1.484375 -2.15625 2.25q-1.390625 0.765625 -3.015625 0.765625q-1.75 0 -3.125 -0.84375q-1.375 -0.859375 -2.09375 -2.3125q-0.703125 -1.46875 -0.703125 -3.109375zm1.6875 0.03125q0 2.234375 1.203125 3.53125q1.203125 1.296875 3.03125 1.296875q1.84375 0 3.03125 -1.296875q1.203125 -1.3125 1.203125 -3.703125q0 -1.515625 -0.515625 -2.640625q-0.5 -1.140625 -1.484375 -1.75q-0.984375 -0.625 -2.21875 -0.625q-1.734375 0 -3.0 1.203125q-1.25 1.1875 -1.25 3.984375zm12.306519 6.015625l0 -12.40625l5.5 0q1.65625 0 2.515625 0.34375q0.875 0.328125 1.390625 1.171875q0.515625 0.84375 0.515625 1.875q0 1.3125 -0.859375 2.21875q-0.859375 0.90625 -2.640625 1.15625q0.65625 0.3125 1.0 0.609375q0.71875 0.671875 1.359375 1.65625l2.15625 3.375l-2.0625 0l-1.640625 -2.578125q-0.71875 -1.125 -1.1875 -1.703125q-0.46875 -0.59375 -0.84375 -0.828125q-0.359375 -0.25 -0.734375 -0.34375q-0.28125 -0.0625 -0.921875 -0.0625l-1.90625 0l0 5.515625l-1.640625 0zm1.640625 -6.921875l3.53125 0q1.125 0 1.75 -0.234375q0.640625 -0.234375 0.96875 -0.75q0.34375 -0.515625 0.34375 -1.109375q0 -0.890625 -0.640625 -1.453125q-0.640625 -0.5625 -2.03125 -0.5625l-3.921875 0l0 4.109375zm13.700684 6.921875l0 -10.9375l-4.09375 0l0 -1.46875l9.828125 0l0 1.46875l-4.09375 0l0 10.9375l-1.640625 0zm7.459717 0l0 -12.40625l8.96875 0l0 1.46875l-7.328125 0l0 3.796875l6.859375 0l0 1.453125l-6.859375 0l0 4.21875l7.609375 0l0 1.46875l-9.25 0zm11.526489 0l0 -12.40625l4.265625 0q1.453125 0 2.203125 0.1875q1.078125 0.234375 1.828125 0.875q0.984375 0.828125 1.46875 2.125q0.484375 1.296875 0.484375 2.953125q0 1.40625 -0.328125 2.5q-0.328125 1.09375 -0.84375 1.8125q-0.515625 0.703125 -1.140625 1.125q-0.609375 0.40625 -1.484375 0.625q-0.859375 0.203125 -1.984375 0.203125l-4.46875 0zm1.640625 -1.46875l2.640625 0q1.234375 0 1.921875 -0.21875q0.703125 -0.234375 1.125 -0.640625q0.578125 -0.59375 0.90625 -1.578125q0.328125 -0.984375 0.328125 -2.390625q0 -1.9375 -0.640625 -2.984375q-0.640625 -1.046875 -1.5625 -1.40625q-0.65625 -0.25 -2.125 -0.25l-2.59375 0l0 9.46875z" fill-rule="nonzero"/><path fill="#000000" fill-opacity="0.0" d="m236.28084 132.29527l104.85039 0" fill-rule="evenodd"/><path stroke="#000000" stroke-width="2.0" stroke-linejoin="round" stroke-linecap="butt" d="m236.28084 132.29527l92.85039 0" fill-rule="evenodd"/><path fill="#000000" stroke="#000000" stroke-width="2.0" stroke-linecap="butt" d="m329.13123 135.59874l9.076202 -3.3034668l-9.076202 -3.3034668z" fill-rule="evenodd"/><path fill="#6aa84f" d="m271.50656 98.42519l0 0c0 -9.497559 7.69928 -17.196846 17.196838 -17.196846l0 0c4.560913 0 8.934998 1.8118057 12.160034 5.0368423c3.2250366 3.225029 5.0368347 7.599121 5.0368347 12.160004l0 0c0 9.497559 -7.6993103 17.196854 -17.196869 17.196854l0 0c-9.497559 0 -17.196838 -7.699295 -17.196838 -17.196854z" fill-rule="evenodd"/><path stroke="#000000" stroke-width="3.0" stroke-linejoin="round" stroke-linecap="butt" d="m271.50656 98.42519l0 0c0 -9.497559 7.69928 -17.196846 17.196838 -17.196846l0 0c4.560913 0 8.934998 1.8118057 12.160034 5.0368423c3.2250366 3.225029 5.0368347 7.599121 5.0368347 12.160004l0 0c0 9.497559 -7.6993103 17.196854 -17.196869 17.196854l0 0c-9.497559 0 -17.196838 -7.699295 -17.196838 -17.196854z" fill-rule="evenodd"/><path fill="#000000" fill-opacity="0.0" d="m500.3071 132.29527l93.38583 0" fill-rule="evenodd"/><path stroke="#000000" stroke-width="2.0" stroke-linejoin="round" stroke-linecap="butt" d="m500.3071 132.29527l81.38583 0" fill-rule="evenodd"/><path fill="#000000" stroke="#000000" stroke-width="2.0" stroke-linecap="butt" d="m581.69293 135.59874l9.076172 -3.3034668l-9.076172 -3.3034668z" fill-rule="evenodd"/><path fill="#000000" fill-opacity="0.0" d="m752.8648 132.29527l93.385864 0" fill-rule="evenodd"/><path stroke="#000000" stroke-width="2.0" stroke-linejoin="round" stroke-linecap="butt" d="m752.8648 132.29527l81.385864 0" fill-rule="evenodd"/><path fill="#000000" stroke="#000000" stroke-width="2.0" stroke-linecap="butt" d="m834.2507 135.59874l9.076172 -3.3034668l-9.076172 -3.3034668z" fill-rule="evenodd"/><path fill="#000000" fill-opacity="0.0" d="m1005.4252 132.29527l93.385864 0" fill-rule="evenodd"/><path stroke="#000000" stroke-width="2.0" stroke-linejoin="round" stroke-linecap="butt" d="m1005.4252 132.29527l81.385864 0" fill-rule="evenodd"/><path fill="#000000" stroke="#000000" stroke-width="2.0" stroke-linecap="butt" d="m1086.811 135.59874l9.076172 -3.3034668l-9.076172 -3.3034668z" fill-rule="evenodd"/><path fill="#000000" fill-opacity="0.0" d="m1178.3937 190.01181l0 168.97638l-942.1102 0" fill-rule="evenodd"/><path stroke="#000000" stroke-width="2.0" stroke-linejoin="round" stroke-linecap="butt" d="m1178.3937 190.01181l0 168.97638l-930.1102 0" fill-rule="evenodd"/><path fill="#000000" stroke="#000000" stroke-width="2.0" stroke-linecap="butt" d="m248.28346 355.68472l-9.076187 3.3034668l9.076187 3.3034668z" fill-rule="evenodd"/><path fill="#000000" fill-opacity="0.0" d="m156.69029 301.26642l0 -111.24411" fill-rule="evenodd"/><path stroke="#000000" stroke-width="2.0" stroke-linejoin="round" stroke-linecap="butt" d="m156.69029 301.26642l0 -99.24411" fill-rule="evenodd"/><path fill="#000000" stroke="#000000" stroke-width="2.0" stroke-linecap="butt" d="m159.99376 202.02231l-3.3034668 -9.076187l-3.3034668 9.076187z" fill-rule="evenodd"/><path fill="#ff9900" d="m1199.1497 258.5013l0 0c0 -9.497559 7.6992188 -17.196854 17.196777 -17.196854l0 0c4.560913 0 8.934937 1.8118134 12.160034 5.03685c3.2249756 3.2250366 5.036865 7.599121 5.036865 12.160004l0 0c0 9.497559 -7.699341 17.196838 -17.1969 17.196838l0 0c-9.497559 0 -17.196777 -7.69928 -17.196777 -17.196838z" fill-rule="evenodd"/><path stroke="#000000" stroke-width="3.0" stroke-linejoin="round" stroke-linecap="butt" d="m1199.1497 258.5013l0 0c0 -9.497559 7.6992188 -17.196854 17.196777 -17.196854l0 0c4.560913 0 8.934937 1.8118134 12.160034 5.03685c3.2249756 3.2250366 5.036865 7.599121 5.036865 12.160004l0 0c0 9.497559 -7.699341 17.196838 -17.1969 17.196838l0 0c-9.497559 0 -17.196777 -7.69928 -17.196777 -17.196838z" fill-rule="evenodd"/><path fill="#ff9900" d="m102.90026 517.94354l0 0c0 -9.497528 7.699295 -17.196838 17.196854 -17.196838l0 0c4.56089 0 8.934975 1.8118286 12.160011 5.036865c3.2250366 3.2250366 5.0368347 7.599121 5.0368347 12.159973l0 0c0 9.497559 -7.699295 17.1969 -17.196846 17.1969l0 0c-9.497559 0 -17.196854 -7.699341 -17.196854 -17.1969z" fill-rule="evenodd"/><path stroke="#000000" stroke-width="3.0" stroke-linejoin="round" stroke-linecap="butt" d="m102.90026 517.94354l0 0c0 -9.497528 7.699295 -17.196838 17.196854 -17.196838l0 0c4.56089 0 8.934975 1.8118286 12.160011 5.036865c3.2250366 3.2250366 5.0368347 7.599121 5.0368347 12.159973l0 0c0 9.497559 -7.699295 17.1969 -17.196846 17.1969l0 0c-9.497559 0 -17.196854 -7.699341 -17.196854 -17.1969z" fill-rule="evenodd"/><path fill="#000000" fill-opacity="0.0" d="m156.69029 561.9042l0 -145.19684" fill-rule="evenodd"/><path stroke="#000000" stroke-width="2.0" stroke-linejoin="round" stroke-linecap="butt" d="m156.69029 561.9042l0 -133.19684" fill-rule="evenodd"/><path fill="#000000" stroke="#000000" stroke-width="2.0" stroke-linecap="butt" d="m159.99376 428.70734l-3.3034668 -9.076172l-3.3034668 9.076172z" fill-rule="evenodd"/><path fill="#000000" fill-opacity="0.0" d="m341.13123 619.6207l-104.85039 0" fill-rule="evenodd"/><path stroke="#000000" stroke-width="2.0" stroke-linejoin="round" stroke-linecap="butt" d="m341.13123 619.6207l-92.85039 0" fill-rule="evenodd"/><path fill="#000000" stroke="#000000" stroke-width="2.0" stroke-linecap="butt" d="m248.28084 616.31726l-9.076187 3.3034668l9.076187 3.3034668z" fill-rule="evenodd"/><path fill="#000000" fill-opacity="0.0" d="m1096.5486 619.6207l-92.629944 0" fill-rule="evenodd"/><path stroke="#000000" stroke-width="2.0" stroke-linejoin="round" stroke-linecap="butt" d="m1096.5486 619.6207l-80.629944 0" fill-rule="evenodd"/><path fill="#000000" stroke="#000000" stroke-width="2.0" stroke-linecap="butt" d="m1015.91864 616.31726l-9.076172 3.3034668l9.076172 3.3034668z" fill-rule="evenodd"/><path fill="#000000" fill-opacity="0.0" d="m844.7428 619.6207l-92.629944 0" fill-rule="evenodd"/><path stroke="#000000" stroke-width="2.0" stroke-linejoin="round" stroke-linecap="butt" d="m844.7428 619.6207l-80.629944 0" fill-rule="evenodd"/><path fill="#000000" stroke="#000000" stroke-width="2.0" stroke-linecap="butt" d="m764.11285 616.31726l-9.076172 3.3034668l9.076172 3.3034668z" fill-rule="evenodd"/><path fill="#4a86e8" d="m768.86615 668.14044l0 0c0 -9.497559 7.69928 -17.1969 17.196838 -17.1969l0 0c4.560913 0 8.934998 1.8118286 12.160034 5.036865c3.2250366 3.2250366 5.036804 7.599121 5.036804 12.160034l0 0c0 9.497559 -7.69928 17.196838 -17.196838 17.196838l0 0c-9.497559 0 -17.196838 -7.69928 -17.196838 -17.196838z" fill-rule="evenodd"/><path stroke="#000000" stroke-width="3.0" stroke-linejoin="round" stroke-linecap="butt" d="m768.86615 668.14044l0 0c0 -9.497559 7.69928 -17.1969 17.196838 -17.1969l0 0c4.560913 0 8.934998 1.8118286 12.160034 5.036865c3.2250366 3.2250366 5.036804 7.599121 5.036804 12.160034l0 0c0 9.497559 -7.69928 17.196838 -17.196838 17.196838l0 0c-9.497559 0 -17.196838 -7.69928 -17.196838 -17.196838z" fill-rule="evenodd"/><path fill="#000000" fill-opacity="0.0" d="m672.5276 677.3373l0 59.42389l-515.8425 0l0 -59.3609" fill-rule="evenodd"/><path stroke="#000000" stroke-width="2.0" stroke-linejoin="round" stroke-linecap="butt" d="m672.5276 677.3373l0 59.42389l-515.8425 0l0 -47.3609" fill-rule="evenodd"/><path fill="#000000" stroke="#000000" stroke-width="2.0" stroke-linecap="butt" d="m159.98851 689.40027l-3.3034668 -9.076172l-3.3034668 9.076172z" fill-rule="evenodd"/><path fill="#ffff00" d="m1199.1497 527.7598l0 0c0 -9.497559 7.6992188 -17.196838 17.196777 -17.196838l0 0c4.560913 0 8.934937 1.8118286 12.160034 5.036865c3.2249756 3.2250366 5.036865 7.599121 5.036865 12.159973l0 0c0 9.497559 -7.699341 17.196838 -17.1969 17.196838l0 0c-9.497559 0 -17.196777 -7.69928 -17.196777 -17.196838z" fill-rule="evenodd"/><path stroke="#ff0000" stroke-width="4.0" stroke-linejoin="round" stroke-linecap="butt" d="m1199.1497 527.7598l0 0c0 -9.497559 7.6992188 -17.196838 17.196777 -17.196838l0 0c4.560913 0 8.934937 1.8118286 12.160034 5.036865c3.2249756 3.2250366 5.036865 7.599121 5.036865 12.159973l0 0c0 9.497559 -7.699341 17.196838 -17.1969 17.196838l0 0c-9.497559 0 -17.196777 -7.69928 -17.196777 -17.196838z" fill-rule="evenodd"/><path fill="#000000" fill-opacity="0.0" d="m421.3517 445.77823l-0.62994385 116.125946" fill-rule="evenodd"/><path stroke="#000000" stroke-width="2.0" stroke-linejoin="round" stroke-linecap="butt" d="m421.3517 445.77823l-0.56484985 104.12613" fill-rule="evenodd"/><path fill="#000000" stroke="#000000" stroke-width="2.0" stroke-linecap="butt" d="m417.48346 549.8865l3.254181 9.093933l3.3526611 -9.058105z" fill-rule="evenodd"/><path fill="#000000" fill-opacity="0.0" d="m434.71652 497.15616l78.01578 0l0 42.015778l-78.01578 0z" fill-rule="evenodd"/><path fill="#000000" d="m449.3395 519.7793l1.65625 -0.140625q0.125 1.0 0.546875 1.640625q0.4375 0.640625 1.34375 1.046875q0.921875 0.390625 2.0625 0.390625q1.0 0 1.78125 -0.296875q0.78125 -0.296875 1.15625 -0.8125q0.375 -0.53125 0.375 -1.15625q0 -0.625 -0.375 -1.09375q-0.359375 -0.46875 -1.1875 -0.796875q-0.546875 -0.203125 -2.390625 -0.640625q-1.828125 -0.453125 -2.5625 -0.84375q-0.96875 -0.5 -1.4375 -1.234375q-0.46875 -0.75 -0.46875 -1.671875q0 -1.0 0.578125 -1.875q0.578125 -0.890625 1.671875 -1.34375q1.109375 -0.453125 2.453125 -0.453125q1.484375 0 2.609375 0.484375q1.140625 0.46875 1.75 1.40625q0.609375 0.921875 0.65625 2.09375l-1.6875 0.125q-0.140625 -1.265625 -0.9375 -1.90625q-0.78125 -0.65625 -2.3125 -0.65625q-1.609375 0 -2.34375 0.59375q-0.734375 0.59375 -0.734375 1.421875q0 0.71875 0.53125 1.171875q0.5 0.46875 2.65625 0.96875q2.15625 0.484375 2.953125 0.84375q1.171875 0.53125 1.71875 1.359375q0.5625 0.828125 0.5625 1.90625q0 1.0625 -0.609375 2.015625q-0.609375 0.9375 -1.75 1.46875q-1.140625 0.515625 -2.578125 0.515625q-1.8125 0 -3.046875 -0.53125q-1.21875 -0.53125 -1.921875 -1.59375q-0.6875 -1.0625 -0.71875 -2.40625zm16.443573 4.296875l0 -11.78125l-4.40625 0l0 -1.578125l10.578125 0l0 1.578125l-4.40625 0l0 11.78125l-1.765625 0zm7.1212463 -6.5q0 -3.328125 1.78125 -5.203125q1.78125 -1.890625 4.609375 -1.890625q1.84375 0 3.328125 0.890625q1.484375 0.875 2.265625 2.46875q0.78125 1.578125 0.78125 3.578125q0 2.03125 -0.828125 3.640625q-0.8125 1.59375 -2.3125 2.421875q-1.5 0.828125 -3.25 0.828125q-1.875 0 -3.359375 -0.90625q-1.484375 -0.921875 -2.25 -2.5q-0.765625 -1.578125 -0.765625 -3.328125zm1.8125 0.015625q0 2.421875 1.296875 3.8125q1.296875 1.390625 3.265625 1.390625q2.0 0 3.28125 -1.40625q1.28125 -1.40625 1.28125 -3.984375q0 -1.625 -0.546875 -2.84375q-0.546875 -1.21875 -1.609375 -1.875q-1.0625 -0.671875 -2.375 -0.671875q-1.890625 0 -3.25 1.296875q-1.34375 1.28125 -1.34375 4.28125zm13.230164 6.484375l0 -13.359375l5.046875 0q1.328125 0 2.03125 0.125q0.96875 0.171875 1.640625 0.640625q0.671875 0.453125 1.078125 1.28125q0.40625 0.828125 0.40625 1.828125q0 1.703125 -1.09375 2.890625q-1.078125 1.171875 -3.921875 1.171875l-3.421875 0l0 5.421875l-1.765625 0zm1.765625 -7.0l3.453125 0q1.71875 0 2.4375 -0.640625q0.71875 -0.640625 0.71875 -1.796875q0 -0.84375 -0.421875 -1.4375q-0.421875 -0.59375 -1.125 -0.78125q-0.4375 -0.125 -1.640625 -0.125l-3.421875 0l0 4.78125z" fill-rule="nonzero"/><path fill="#000000" fill-opacity="0.0" d="m242.0105 148.97113l93.38583 0l0 42.015747l-93.38583 0z" fill-rule="evenodd"/><path fill="#000000" d="m259.83246 171.59425l1.65625 -0.140625q0.125 1.0 0.546875 1.640625q0.4375 0.640625 1.34375 1.046875q0.921875 0.390625 2.0625 0.390625q1.0 0 1.78125 -0.296875q0.78125 -0.296875 1.15625 -0.8125q0.375 -0.53125 0.375 -1.15625q0 -0.625 -0.375 -1.09375q-0.359375 -0.46875 -1.1875 -0.796875q-0.546875 -0.203125 -2.390625 -0.640625q-1.828125 -0.453125 -2.5625 -0.84375q-0.96875 -0.5 -1.4375 -1.234375q-0.46875 -0.75 -0.46875 -1.671875q0 -1.0 0.578125 -1.875q0.578125 -0.890625 1.671875 -1.34375q1.109375 -0.453125 2.453125 -0.453125q1.484375 0 2.609375 0.484375q1.140625 0.46875 1.75 1.40625q0.609375 0.921875 0.65625 2.09375l-1.6875 0.125q-0.140625 -1.265625 -0.9375 -1.90625q-0.78125 -0.65625 -2.3125 -0.65625q-1.609375 0 -2.34375 0.59375q-0.734375 0.59375 -0.734375 1.421875q0 0.71875 0.53125 1.171875q0.5 0.46875 2.65625 0.96875q2.15625 0.484375 2.953125 0.84375q1.171875 0.53125 1.71875 1.359375q0.5625 0.828125 0.5625 1.90625q0 1.0625 -0.609375 2.015625q-0.609375 0.9375 -1.75 1.46875q-1.140625 0.515625 -2.578125 0.515625q-1.8125 0 -3.046875 -0.53125q-1.21875 -0.53125 -1.921875 -1.59375q-0.6875 -1.0625 -0.71875 -2.40625zm16.443573 4.296875l0 -11.78125l-4.40625 0l0 -1.578125l10.578125 0l0 1.578125l-4.40625 0l0 11.78125l-1.765625 0zm5.135559 0l5.125 -13.359375l1.90625 0l5.46875 13.359375l-2.015625 0l-1.546875 -4.046875l-5.59375 0l-1.46875 4.046875l-1.875 0zm3.859375 -5.484375l4.53125 0l-1.40625 -3.703125q-0.625 -1.6875 -0.9375 -2.765625q-0.265625 1.28125 -0.71875 2.546875l-1.46875 3.921875zm10.084198 5.484375l0 -13.359375l5.921875 0q1.78125 0 2.703125 0.359375q0.9375 0.359375 1.484375 1.28125q0.5625 0.90625 0.5625 2.015625q0 1.40625 -0.921875 2.390625q-0.921875 0.96875 -2.84375 1.234375q0.703125 0.34375 1.078125 0.671875q0.765625 0.703125 1.453125 1.765625l2.328125 3.640625l-2.21875 0l-1.765625 -2.78125q-0.78125 -1.203125 -1.28125 -1.828125q-0.5 -0.640625 -0.90625 -0.890625q-0.390625 -0.265625 -0.796875 -0.359375q-0.296875 -0.078125 -0.984375 -0.078125l-2.046875 0l0 5.9375l-1.765625 0zm1.765625 -7.453125l3.796875 0q1.21875 0 1.890625 -0.25q0.6875 -0.265625 1.046875 -0.8125q0.359375 -0.546875 0.359375 -1.1875q0 -0.953125 -0.6875 -1.5625q-0.6875 -0.609375 -2.1875 -0.609375l-4.21875 0l0 4.421875zm14.745087 7.453125l0 -11.78125l-4.40625 0l0 -1.578125l10.578125 0l0 1.578125l-4.40625 0l0 11.78125l-1.765625 0z" fill-rule="nonzero"/><path fill="#000000" fill-opacity="0.0" d="m1062.6641 237.49344l93.385864 0l0 42.015747l-93.385864 0z" fill-rule="evenodd"/><path fill="#000000" d="m1079.7258 264.41342l0 -13.35936l5.921875 0q1.78125 0 2.703125 0.359375q0.9375 0.359375 1.484375 1.28125q0.5625 0.90625 0.5625 2.015625q0 1.4062347 -0.921875 2.3906097q-0.921875 0.96875 -2.84375 1.234375q0.703125 0.34375 1.078125 0.671875q0.765625 0.703125 1.453125 1.765625l2.328125 3.640625l-2.21875 0l-1.765625 -2.78125q-0.78125 -1.203125 -1.28125 -1.828125q-0.5 -0.640625 -0.90625 -0.890625q-0.390625 -0.265625 -0.796875 -0.359375q-0.296875 -0.078125 -0.984375 -0.078125l-2.046875 0l0 5.9375l-1.765625 0zm1.765625 -7.453125l3.796875 0q1.21875 0 1.890625 -0.25q0.6875 -0.265625 1.046875 -0.81248474q0.359375 -0.546875 0.359375 -1.1875q0 -0.953125 -0.6875 -1.5625q-0.6875 -0.609375 -2.1875 -0.609375l-4.21875 0l0 4.4218597zm11.707397 7.453125l0 -13.35936l9.65625 0l0 1.578125l-7.875 0l0 4.0937347l7.375 0l0 1.5625l-7.375 0l0 4.546875l8.1875 0l0 1.578125l-9.96875 0zm11.8186035 -4.296875l1.65625 -0.140625q0.125 1.0 0.546875 1.640625q0.4375 0.640625 1.34375 1.046875q0.921875 0.390625 2.0625 0.390625q1.0 0 1.78125 -0.296875q0.78125 -0.296875 1.15625 -0.8125q0.375 -0.53125 0.375 -1.15625q0 -0.625 -0.375 -1.09375q-0.359375 -0.46875 -1.1875 -0.796875q-0.546875 -0.203125 -2.390625 -0.640625q-1.828125 -0.453125 -2.5625 -0.84375q-0.96875 -0.5 -1.4375 -1.234375q-0.46875 -0.74998474 -0.46875 -1.6718597q0 -1.0 0.578125 -1.875q0.578125 -0.890625 1.671875 -1.34375q1.109375 -0.453125 2.453125 -0.453125q1.484375 0 2.609375 0.484375q1.140625 0.46875 1.75 1.40625q0.609375 0.921875 0.65625 2.09375l-1.6875 0.125q-0.140625 -1.265625 -0.9375 -1.90625q-0.78125 -0.65625 -2.3125 -0.65625q-1.609375 0 -2.34375 0.59375q-0.734375 0.59375 -0.734375 1.421875q0 0.71875 0.53125 1.171875q0.5 0.46873474 2.65625 0.96873474q2.15625 0.484375 2.953125 0.84375q1.171875 0.53125 1.71875 1.359375q0.5625 0.828125 0.5625 1.90625q0 1.0625 -0.609375 2.015625q-0.609375 0.9375 -1.75 1.46875q-1.140625 0.515625 -2.578125 0.515625q-1.8125 0 -3.046875 -0.53125q-1.21875 -0.53125 -1.921875 -1.59375q-0.6875 -1.0625 -0.71875 -2.40625zm13.068481 4.296875l0 -13.35936l9.65625 0l0 1.578125l-7.875 0l0 4.0937347l7.375 0l0 1.5625l-7.375 0l0 4.546875l8.1875 0l0 1.578125l-9.96875 0zm15.8186035 0l0 -11.781235l-4.40625 0l0 -1.578125l10.578125 0l0 1.578125l-4.40625 0l0 11.781235l-1.765625 0z" fill-rule="nonzero"/><path fill="#000000" fill-opacity="0.0" d="m170.28871 497.15353l93.38582 0l0 42.015778l-93.38582 0z" fill-rule="evenodd"/><path fill="#000000" d="m187.35056 524.07355l0 -13.359375l5.921875 0q1.78125 0 2.703125 0.359375q0.9375 0.359375 1.484375 1.28125q0.5625 0.90625 0.5625 2.015625q0 1.40625 -0.921875 2.390625q-0.921875 0.96875 -2.84375 1.234375q0.703125 0.34375 1.078125 0.671875q0.765625 0.703125 1.453125 1.765625l2.328125 3.640625l-2.21875 0l-1.765625 -2.78125q-0.78125 -1.203125 -1.28125 -1.828125q-0.5 -0.640625 -0.90625 -0.890625q-0.390625 -0.265625 -0.796875 -0.359375q-0.296875 -0.078125 -0.984375 -0.078125l-2.046875 0l0 5.9375l-1.765625 0zm1.765625 -7.453125l3.796875 0q1.21875 0 1.890625 -0.25q0.6875 -0.265625 1.046875 -0.8125q0.359375 -0.546875 0.359375 -1.1875q0 -0.953125 -0.6875 -1.5625q-0.6875 -0.609375 -2.1875 -0.609375l-4.21875 0l0 4.421875zm11.707321 7.453125l0 -13.359375l9.65625 0l0 1.578125l-7.875 0l0 4.09375l7.375 0l0 1.5625l-7.375 0l0 4.546875l8.1875 0l0 1.578125l-9.96875 0zm11.818573 -4.296875l1.65625 -0.140625q0.125 1.0 0.546875 1.640625q0.4375 0.640625 1.34375 1.046875q0.921875 0.390625 2.0625 0.390625q1.0 0 1.78125 -0.296875q0.78125 -0.296875 1.15625 -0.8125q0.375 -0.53125 0.375 -1.15625q0 -0.625 -0.375 -1.09375q-0.359375 -0.46875 -1.1875 -0.796875q-0.546875 -0.203125 -2.390625 -0.640625q-1.828125 -0.453125 -2.5625 -0.84375q-0.96875 -0.5 -1.4375 -1.234375q-0.46875 -0.75 -0.46875 -1.671875q0 -1.0 0.578125 -1.875q0.578125 -0.890625 1.671875 -1.34375q1.109375 -0.453125 2.453125 -0.453125q1.484375 0 2.609375 0.484375q1.140625 0.46875 1.75 1.40625q0.609375 0.921875 0.65625 2.09375l-1.6875 0.125q-0.140625 -1.265625 -0.9375 -1.90625q-0.78125 -0.65625 -2.3125 -0.65625q-1.609375 0 -2.34375 0.59375q-0.734375 0.59375 -0.734375 1.421875q0 0.71875 0.53125 1.171875q0.5 0.46875 2.65625 0.96875q2.15625 0.484375 2.953125 0.84375q1.171875 0.53125 1.71875 1.359375q0.5625 0.828125 0.5625 1.90625q0 1.0625 -0.609375 2.015625q-0.609375 0.9375 -1.75 1.46875q-1.140625 0.515625 -2.578125 0.515625q-1.8125 0 -3.046875 -0.53125q-1.21875 -0.53125 -1.921875 -1.59375q-0.6875 -1.0625 -0.71875 -2.40625zm13.068573 4.296875l0 -13.359375l9.65625 0l0 1.578125l-7.875 0l0 4.09375l7.375 0l0 1.5625l-7.375 0l0 4.546875l8.1875 0l0 1.578125l-9.96875 0zm15.818573 0l0 -11.78125l-4.40625 0l0 -1.578125l10.578125 0l0 1.578125l-4.40625 0l0 11.78125l-1.765625 0z" fill-rule="nonzero"/><path fill="#ff0000" d="m361.85565 518.1627l0 0c0 -9.497559 7.69928 -17.196838 17.196838 -17.196838l0 0c4.5608826 0 8.934967 1.8117981 12.160004 5.0368347c3.2250366 3.2250366 5.0368347 7.5991516 5.0368347 12.160004l0 0c0 9.497559 -7.69928 17.196838 -17.196838 17.196838l0 0c-9.497559 0 -17.196838 -7.69928 -17.196838 -17.196838z" fill-rule="evenodd"/><path stroke="#000000" stroke-width="3.0" stroke-linejoin="round" stroke-linecap="butt" d="m361.85565 518.1627l0 0c0 -9.497559 7.69928 -17.196838 17.196838 -17.196838l0 0c4.5608826 0 8.934967 1.8117981 12.160004 5.0368347c3.2250366 3.2250366 5.0368347 7.5991516 5.0368347 12.160004l0 0c0 9.497559 -7.69928 17.196838 -17.196838 17.196838l0 0c-9.497559 0 -17.196838 -7.69928 -17.196838 -17.196838z" fill-rule="evenodd"/><path fill="#000000" fill-opacity="0.0" d="m758.7194 603.9813l-0.03149414 -93.38583l42.015747 0l0.03149414 93.38583z" fill-rule="evenodd"/><path fill="#000000" d="m780.94293 577.424l0.45257568 -1.765625q2.172058 0.5625 3.3287964 2.0q1.1411133 1.4375 1.1417847 3.53125q7.324219E-4 2.15625 -0.8737793 3.515625q-0.89019775 1.34375 -2.5462036 2.0625q-1.6716309 0.703125 -3.5935059 0.703125q-2.078125 0 -3.6252441 -0.796875q-1.5628052 -0.796875 -2.3601685 -2.265625q-0.8129883 -1.484375 -0.81359863 -3.25q-6.713867E-4 -2.0 1.0144653 -3.359375q1.0151978 -1.375 2.8743896 -1.90625l0.40686035 1.734375q-1.4530029 0.46875 -2.1089478 1.359375q-0.6715698 0.875 -0.6711426 2.203125q5.493164E-4 1.546875 0.7352295 2.578125q0.7347412 1.03125 1.9849243 1.453125q1.2344971 0.421875 2.562622 0.421875q1.703125 0 2.968567 -0.5q1.2654419 -0.5 1.9057617 -1.546875q0.6246338 -1.046875 0.62420654 -2.265625q-4.8828125E-4 -1.484375 -0.8602295 -2.515625q-0.8597412 -1.03125 -2.5473633 -1.390625zm4.6862183 -3.8635864l-13.359375 0l-6.1035156E-4 -1.78125l11.78125 0l-0.0021972656 -6.5625l1.578125 0l0.0028076172 8.34375zm-0.003540039 -10.485046l-13.359375 0l-0.0032348633 -9.65625l1.578125 0l0.0026245117 7.875l4.09375 0l-0.0024414062 -7.375l1.5625 0l0.0024414062 7.375l4.546875 0l-0.002746582 -8.1875l1.578125 0l0.0033569336 9.96875zm-0.0036621094 -10.9436035l-13.361145 -5.125l-6.1035156E-4 -1.90625l13.357544 -5.46875l6.713867E-4 2.015625l-4.0463867 1.546875l0.0018920898 5.59375l4.0473633 1.46875l6.713867E-4 1.875zm-5.485718 -3.859375l-0.0015258789 -4.53125l-3.7026367 1.40625q-1.6872559 0.625 -2.7653198 0.9375q1.2813721 0.265625 2.5471191 0.71875l3.9223633 1.46875zm5.481018 -10.0841675l-13.359375 0l-0.0020141602 -5.921875q-6.1035156E-4 -1.78125 0.35845947 -2.703125q0.35906982 -0.9375 1.2807617 -1.484375q0.9060669 -0.5625 2.015442 -0.5625q1.40625 0 2.3909302 0.921875q0.9690552 0.921875 1.2352905 2.84375q0.3435669 -0.703125 0.6715088 -1.078125q0.70288086 -0.765625 1.7651367 -1.453125l3.6398926 -2.328125l7.324219E-4 2.21875l-2.7806396 1.765625q-1.2028809 0.78125 -1.8276978 1.28125q-0.6405029 0.5 -0.8903198 0.90625q-0.26550293 0.390625 -0.35913086 0.796875q-0.07800293 0.296875 -0.07775879 0.984375l6.713867E-4 2.046875l5.9375 0l6.1035156E-4 1.765625zm-7.4537354 -1.765625l-0.0012817383 -3.796875q-4.272461E-4 -1.21875 -0.2506714 -1.890625q-0.2658081 -0.6875 -0.8128052 -1.046875q-0.5469971 -0.359375 -1.1876221 -0.359375q-0.953125 0 -1.5623169 0.6875q-0.60913086 0.6875 -0.60858154 2.1875l0.0014038086 4.21875l4.421875 0z" fill-rule="nonzero"/><path fill="#000000" fill-opacity="0.0" d="m1174.727 481.45407l0.7873535 80.47244" fill-rule="evenodd"/><path stroke="#000000" stroke-width="2.0" stroke-linejoin="round" stroke-linecap="butt" d="m1174.727 481.45407l0.67004395 68.47299" fill-rule="evenodd"/><path fill="#000000" stroke="#000000" stroke-width="2.0" stroke-linecap="butt" d="m1172.0938 549.9594l3.3920898 9.043457l3.2144775 -9.108093z" fill-rule="evenodd"/><path fill="#000000" fill-opacity="0.0" d="m1059.1129 510.5958l93.38574 0l0 42.015778l-93.38574 0z" fill-rule="evenodd"/><path fill="#000000" d="m1073.8094 537.5158l5.125 -13.359375l1.90625 0l5.46875 13.359375l-2.015625 0l-1.546875 -4.046875l-5.59375 0l-1.46875 4.046875l-1.875 0zm3.859375 -5.484375l4.53125 0l-1.40625 -3.703125q-0.625 -1.6875 -0.9375 -2.765625q-0.265625 1.28125 -0.71875 2.546875l-1.46875 3.921875zm9.974731 5.484375l0 -13.359375l5.015625 0q1.53125 0 2.453125 0.40625q0.921875 0.40625 1.4375 1.25q0.53125 0.84375 0.53125 1.765625q0 0.859375 -0.46875 1.625q-0.453125 0.75 -1.390625 1.203125q1.203125 0.359375 1.859375 1.21875q0.65625 0.859375 0.65625 2.015625q0 0.9375 -0.40625 1.75q-0.390625 0.796875 -0.984375 1.234375q-0.578125 0.4375 -1.453125 0.671875q-0.875 0.21875 -2.15625 0.21875l-5.09375 0zm1.78125 -7.75l2.875 0q1.1875 0 1.6875 -0.140625q0.671875 -0.203125 1.015625 -0.671875q0.34375 -0.46875 0.34375 -1.171875q0 -0.65625 -0.328125 -1.15625q-0.3125 -0.515625 -0.90625 -0.703125q-0.59375 -0.1875 -2.03125 -0.1875l-2.65625 0l0 4.03125zm0 6.171875l3.3125 0q0.859375 0 1.203125 -0.0625q0.609375 -0.109375 1.015625 -0.359375q0.421875 -0.265625 0.6875 -0.75q0.265625 -0.484375 0.265625 -1.125q0 -0.75 -0.390625 -1.296875q-0.375 -0.546875 -1.0625 -0.765625q-0.671875 -0.234375 -1.953125 -0.234375l-3.078125 0l0 4.59375zm10.2092285 -4.921875q0 -3.328125 1.78125 -5.203125q1.78125 -1.890625 4.609375 -1.890625q1.84375 0 3.328125 0.890625q1.484375 0.875 2.265625 2.46875q0.78125 1.578125 0.78125 3.578125q0 2.03125 -0.828125 3.640625q-0.8125 1.59375 -2.3125 2.421875q-1.5 0.828125 -3.25 0.828125q-1.875 0 -3.359375 -0.90625q-1.484375 -0.921875 -2.25 -2.5q-0.765625 -1.578125 -0.765625 -3.328125zm1.8125 0.015625q0 2.421875 1.296875 3.8125q1.296875 1.390625 3.265625 1.390625q2.0 0 3.28125 -1.40625q1.28125 -1.40625 1.28125 -3.984375q0 -1.625 -0.546875 -2.84375q-0.546875 -1.21875 -1.609375 -1.875q-1.0625 -0.671875 -2.375 -0.671875q-1.890625 0 -3.25 1.296875q-1.34375 1.28125 -1.34375 4.28125zm13.261475 6.484375l0 -13.359375l5.921875 0q1.78125 0 2.703125 0.359375q0.9375 0.359375 1.484375 1.28125q0.5625 0.90625 0.5625 2.015625q0 1.40625 -0.921875 2.390625q-0.921875 0.96875 -2.84375 1.234375q0.703125 0.34375 1.078125 0.671875q0.765625 0.703125 1.453125 1.765625l2.328125 3.640625l-2.21875 0l-1.765625 -2.78125q-0.78125 -1.203125 -1.28125 -1.828125q-0.5 -0.640625 -0.90625 -0.890625q-0.390625 -0.265625 -0.796875 -0.359375q-0.296875 -0.078125 -0.984375 -0.078125l-2.046875 0l0 5.9375l-1.765625 0zm1.765625 -7.453125l3.796875 0q1.21875 0 1.890625 -0.25q0.6875 -0.265625 1.046875 -0.8125q0.359375 -0.546875 0.359375 -1.1875q0 -0.953125 -0.6875 -1.5625q-0.6875 -0.609375 -2.1875 -0.609375l-4.21875 0l0 4.421875zm14.744995 7.453125l0 -11.78125l-4.40625 0l0 -1.578125l10.578125 0l0 1.578125l-4.40625 0l0 11.78125l-1.765625 0z" fill-rule="nonzero"/></g></svg>